<svg
  xmlns="http://www.w3.org/2000/svg"
  viewBox="0 0 994 985.3"
  class="m-organise--shape"
  data-state-name="tag-manager"
>
  <defs>
    <clipPath id="organise-shape-mask">
      <path
        d="M754.3 667.4L559.5 779.9c-43.2 25-96.5 25-139.7 0L225.1 667.4c-43.2-25-69.9-71.1-69.9-121v-225c0-49.9 26.6-96.1 69.9-121L419.8 87.9c43.2-25 96.5-25 139.7 0l194.7 112.5c43.2 25 69.9 71.1 69.9 121v224.9c0 50-26.6 96.1-69.8 121.1z"
      />
    </clipPath>

    <linearGradient
      id="organise-shape-background-gradient"
      gradientUnits="userSpaceOnUse"
      x1="0%"
      y1="0%"
      x2="100%"
      y2="0%"
      gradientTransform="rotate(90)"
    >
      <stop offset="0%" stop-color="#769bf7" />
      <stop offset="100%" stop-color="#b49edc" />
    </linearGradient>

    <filter
      id="organise-shape-select-tag-shadow"
      x="-40%"
      y="-40%"
      height="180%"
      width="180%"
      filterUnits="userSpaceOnUse"
    >
      <feGaussianBlur in="SourceAlpha" stdDeviation="29" />
      <feOffset dx="0" dy="12" result="offsetblur" />
      <feFlood flood-color="#040a77" />
      <feComposite in2="offsetblur" operator="in" />
      <feComponentTransfer>
        <feFuncA type="linear" slope="0.25" />
      </feComponentTransfer>
      <feMerge>
        <feMergeNode />
        <feMergeNode in="SourceGraphic" />
      </feMerge>
    </filter>
  </defs>

  <g>
    <g clip-path="url(#organise-shape-mask)">
      <g>
        <path
          fill="url(#organise-shape-background-gradient)"
          d="M754.3 667.4L559.5 779.9c-43.2 25-96.5 25-139.7 0L225.1 667.4c-43.2-25-69.9-71.1-69.9-121v-225c0-49.9 26.6-96.1 69.9-121L419.8 87.9c43.2-25 96.5-25 139.7 0l194.7 112.5c43.2 25 69.9 71.1 69.9 121v224.9c0 50-26.6 96.1-69.8 121.1z"
        />
      </g>
      <g class="m-organise--shape-element">
        <path
          fill="#DEE3FF"
          d="M225.8,294.2H7.2c-4,0-7.2-3.2-7.2-7.2V158.5c0-4,3.2-7.2,7.2-7.2h218.6c4,0,7.2,3.2,7.2,7.2v128.6 C233,291,229.8,294.2,225.8,294.2z"
        />
      </g>
      <g class="m-organise--shape-element">
        <path
          fill="#DEE3FF"
          d="M986.8,278.2H768.2c-4,0-7.2-3.2-7.2-7.2V169.5c0-4,3.2-7.2,7.2-7.2h218.6c4,0,7.2,3.2,7.2,7.2v101.6 C994,275,990.8,278.2,986.8,278.2z"
        />
      </g>
      <g class="m-organise--shape-element m-organise--shape-element-empty">
        <path
          fill="#DEE3FF"
          transform="translate(0, -20)"
          d="M733.2,952.6H514.6c-4,0-7.2-3.2-7.2-7.2V786.5c0-4,3.2-7.2,7.2-7.2h218.6c4,0,7.2,3.2,7.2,7.2v158.8 C740.4,949.4,737.2,952.6,733.2,952.6z"
        />
      </g>
      <g class="m-organise--shape-element">
        <path fill="#A4ABED"
          d="M486.6 70.7c0-4-3.2-7.2-7.2-7.2H260.7c-4 0-7.2 3.2-7.2 7.2v39h233v-39h.1z" />
        <path fill="#DEE3FF"
          d="M253.6 109.2v64c0 4 3.2 7.2 7.2 7.2h218.6c4 0 7.2-3.2 7.2-7.2v-64h-233z" />
        <path
          fill="#727CD6"
          d="M374.3 88.2h-77.7c-1 0-1.8-.8-1.8-1.8s.8-1.8 1.8-1.8h77.7c1 0 1.8.8 1.8 1.8s-.8 1.8-1.8 1.8zm-93.4 5.1h-10.1c-.9 0-1.7-.8-1.7-1.7V81.5c0-.9.8-1.7 1.7-1.7h10.1c.9 0 1.7.8 1.7 1.7v10.1c0 1-.8 1.7-1.7 1.7z"
        />
        <g transform="translate(-2, 0)">
          <path fill="#A4ABED" d="M350.9 124.6h37.9v38.8h-37.9z" />
          <path fill="#727CD6" d="M389 124.6h37.9v38.8H389z" />
          <path
            fill="#AEB7ED"
            d="M277.6 124.6c-1.4 0-2.5 1.1-2.5 2.5v33.8c0 1.4 1.1 2.5 2.5 2.5H313v-38.8h-35.4z"
          />
          <path fill="#8592E0" d="M313.2 124.6h37.9v38.8h-37.9z" />
          <path
            fill="#A4ABED"
            d="M462.2 124.6h-35.4v38.8h35.4c1.4 0 2.5-1.1 2.5-2.5v-33.8c0-1.4-1.1-2.5-2.5-2.5z"
          />
        </g>
      </g>
      <g class="m-organise--shape-element">
        <path fill="#A4ABED"
          d="M993.6 623.7c0-4-3.2-7.2-7.2-7.2H767.7c-4 0-7.2 3.2-7.2 7.2v39h233l.1-39z" />
        <path fill="#DEE3FF"
          d="M760.6 662.2v64c0 4 3.2 7.2 7.2 7.2h218.6c4 0 7.2-3.2 7.2-7.2v-64h-233z" />
        <path
          fill="#727CD6"
          d="M881.3 641.2h-77.7c-1 0-1.8-.8-1.8-1.8s.8-1.8 1.8-1.8h77.7c1 0 1.8.8 1.8 1.8s-.8 1.8-1.8 1.8zm-93.9 5.1h-9.1c-1.2 0-2.2-1-2.2-2.2V635c0-1.2 1-2.2 2.2-2.2h9.1c1.2 0 2.2 1 2.2 2.2v9.1c0 1.3-1 2.2-2.2 2.2z"
        />
        <path fill="#A4ABED" d="M857.9 677.6h37.9v38.8h-37.9z" />
        <path fill="#727CD6" d="M896 677.6h37.9v38.8H896z" />
        <path fill="#AEB7ED"
          d="M784.6 677.6c-1.4 0-2.5 1.1-2.5 2.5v33.8c0 1.4 1.1 2.5 2.5 2.5H820v-38.8h-35.4z" />
        <path fill="#8592E0" d="M820.2 677.6h37.9v38.8h-37.9z" />
        <path fill="#A4ABED"
          d="M969.2 677.6h-35.4v38.8h35.4c1.4 0 2.5-1.1 2.5-2.5v-33.8c0-1.4-1.1-2.5-2.5-2.5z" />
      </g>
      <g class="m-organise--shape-element">
        <path
          fill="#DEE3FF"
          d="M986.4 596.7H767.8c-4 0-7.2-3.2-7.2-7.2V305.4c0-4 3.2-7.2 7.2-7.2h218.6c4 0 7.2 3.2 7.2 7.2v284.1c0 4-3.2 7.2-7.2 7.2z"
        />
        <path
          fill="#727CD6"
          d="M962.5 579.9H791.8c-3.5 0-6.3-2.8-6.3-6.3V437.9c0-3.5 2.8-6.3 6.3-6.3h170.7c3.5 0 6.3 2.8 6.3 6.3v135.6c0 3.5-2.8 6.4-6.3 6.4z"
        />
        <path
          fill="#A4ABED"
          d="M963 482.5H791.3c-3.5 0-6.3-2.8-6.3-6.3v-46.4c0-3.5 2.8-6.3 6.3-6.3H963c3.5 0 6.3 2.8 6.3 6.3v46.4c0 3.4-2.8 6.3-6.3 6.3z"
        />
        <path
          fill="#FFF"
          d="M945.5 565.4H808.8c-6 0-10.8-4.8-10.8-10.8s4.8-10.8 10.8-10.8h136.7c6 0 10.8 4.8 10.8 10.8s-4.9 10.8-10.8 10.8z"
        />
        <path
          fill="#A4ABED"
          d="M912.1 556.8h-69.9c-.9 0-1.6-.7-1.6-1.6 0-.9.7-1.6 1.6-1.6h69.9c.9 0 1.6.7 1.6 1.6-.1.9-.8 1.6-1.6 1.6z"
        />
        <path
          fill="#898EE5"
          d="M900.5 505.7h-91c-1.6 0-2.9-1.3-2.9-2.9s1.3-2.9 2.9-2.9h91c1.6 0 2.9 1.3 2.9 2.9 0 1.6-1.3 2.9-2.9 2.9z"
        />
        <path
          fill="#A4ABED"
          d="M944.8 505.7h-29.3c-1.6 0-2.9-1.3-2.9-2.9s1.3-2.9 2.9-2.9h29.3c1.6 0 2.9 1.3 2.9 2.9 0 1.6-1.3 2.9-2.9 2.9z"
        />
        <path
          fill="#898EE5"
          d="M923.1 523.6h-67.2c-1.6 0-2.9-1.3-2.9-2.9 0-1.6 1.3-2.9 2.9-2.9h67.2c1.6 0 2.9 1.3 2.9 2.9s-1.3 2.9-2.9 2.9z"
        />
        <path
          fill="#A4ABED"
          d="M840.9 523.6h-31.4c-1.6 0-2.9-1.3-2.9-2.9 0-1.6 1.3-2.9 2.9-2.9h31.4c1.6 0 2.9 1.3 2.9 2.9 0 1.6-1.3 2.9-2.9 2.9z"
        />
        <circle cx="877.1" cy="345.2" r="25.5" fill="#898EE5" />
        <circle cx="893.1" cy="325.4" r="6.7" fill="#AEB7ED" />
        <path
          fill="#FFF"
          d="M907.9 392.9h-61.5c-2.2 0-3.9-1.8-3.9-3.9s1.8-3.9 3.9-3.9h61.5c2.2 0 3.9 1.8 3.9 3.9s-1.8 3.9-3.9 3.9z"
        />
        <path
          fill="#A4ABED"
          d="M893 403.5h-31.8c-1.4 0-2.5-1.1-2.5-2.5s1.1-2.5 2.5-2.5H893c1.4 0 2.5 1.1 2.5 2.5s-1.1 2.5-2.5 2.5z"
        />
        <path
          fill="#D7DCF7"
          d="M837.9 462.8h-29.5c-2.2 0-3.9-1.8-3.9-3.9s1.8-3.9 3.9-3.9h29.5c2.2 0 3.9 1.8 3.9 3.9s-1.8 3.9-3.9 3.9z"
        />
        <path
          fill="#727CD6"
          d="M833.2 447.6H813c-.8 0-1.4-.6-1.4-1.4s.6-1.4 1.4-1.4h20.1c.8 0 1.4.6 1.4 1.4s-.6 1.4-1.3 1.4z"
        />
        <path
          fill="#D7DCF7"
          d="M891.9 462.8h-29.5c-2.2 0-3.9-1.8-3.9-3.9s1.8-3.9 3.9-3.9h29.5c2.2 0 3.9 1.8 3.9 3.9s-1.7 3.9-3.9 3.9z"
        />
        <path
          fill="#727CD6"
          d="M887.2 447.6h-20.1c-.8 0-1.4-.6-1.4-1.4s.6-1.4 1.4-1.4h20.1c.8 0 1.4.6 1.4 1.4s-.6 1.4-1.4 1.4z"
        />
        <path
          fill="#D7DCF7"
          d="M945.9 462.8h-29.5c-2.2 0-3.9-1.8-3.9-3.9s1.8-3.9 3.9-3.9h29.5c2.2 0 3.9 1.8 3.9 3.9s-1.7 3.9-3.9 3.9z"
        />
        <path
          fill="#727CD6"
          d="M941.2 447.6h-20.1c-.8 0-1.4-.6-1.4-1.4s.6-1.4 1.4-1.4h20.1c.8 0 1.4.6 1.4 1.4s-.6 1.4-1.4 1.4z"
        />
      </g>
      <g class="m-organise--shape-element">
        <path
          fill="#DEE3FF"
          d="M226.6 653.2H8c-4 0-7.2-3.2-7.2-7.2V322c0-4 3.2-7.2 7.2-7.2h218.6c4 0 7.2 3.2 7.2 7.2v324.1c0 3.9-3.2 7.1-7.2 7.1z"
        />
        <path
          fill="#FFF"
          d="M210.4 538.9H24.2c-4 0-7.2-3.2-7.2-7.2V340.9c0-4 3.2-7.2 7.2-7.2h186.1c4 0 7.2 3.2 7.2 7.2v190.9c0 3.9-3.2 7.1-7.1 7.1z"
        />
        <path
          fill="#898EE5"
          d="M164.7 387.9l-65 119.6c-.7 1.3-2.1 2.1-3.6 2.1-.6 0-1.6-.2-2.5-.9C80.5 498.1 71.4 483 68 466.4c-1.7-8.3-1.9-16.7-.7-25 1.2-8.6 4-16.9 8.2-24.6 6.4-11.8 15.9-21.6 27.5-28.3 11.2-6.5 24-10 37-10 7.6 0 15.2 1.2 22.4 3.5 1.5.5 2.2 1.7 2.5 2.3.3.8.6 2.1-.2 3.6zm3.7 151.3c-1.2 8.6-4 16.9-8.2 24.6-6.4 11.8-15.9 21.6-27.5 28.3-11.2 6.5-24 10-37 10-7.6 0-15.2-1.2-22.4-3.5-1.5-.5-2.2-1.7-2.5-2.3-.3-.7-.6-2 .2-3.5l65-119.6c.7-1.3 2.1-2.1 3.6-2.1.6 0 1.6.2 2.5.9 13.1 10.6 22.2 25.7 25.6 42.3 1.7 8.2 1.9 16.6.7 24.9z"
        />
      </g>
      <g class="m-organise--shape-element m-organise--shape-element-tchat">
        <g>
          <path fill="#A4ABED"
            d="M253.7 939v39.1c0 4 3.2 7.2 7.2 7.2h218.6c4 0 7.2-3.2 7.2-7.2V939h-233z" />
          <path
            fill="#DEE3FF"
            class="m-organise--shape-element-multiple-stroke"
            d="M486.7 720.6c0-4-3.2-7.2-7.2-7.2H260.9c-4 0-7.2 3.2-7.2 7.2v218.8h233V720.6z"
          />
          <path
            fill="#FFF"
            d="M470.8 975H269.1c-1.8 0-3.2-1.5-3.2-3.2v-19.6c0-1.8 1.5-3.2 3.2-3.2h201.7c1.8 0 3.2 1.5 3.2 3.2v19.6c0 1.7-1.5 3.2-3.2 3.2zm-155.2-64.5c0 2.8 2.3 5.2 5.2 5.2h132.6c2.8 0 5.2-2.3 5.2-5.2V877c0-2.8-2.3-5.2-5.2-5.2H310.5c-2 0-3 2.5-1.6 3.9l6.8 6.5-.1 28.3z"
          />
          <circle cx="285.9" cy="877.5" r="12.4" fill="#A4ABED" />
          <path
            fill="#D7DCF7"
            d="M447 909.6h-21.1c-1.2 0-2.2-1-2.2-2.2s1-2.2 2.2-2.2H447c1.2 0 2.2 1 2.2 2.2s-1 2.2-2.2 2.2z"
          />
          <path
            fill="#727CD6"
            d="M364.9 886.9h-36.4c-1.2 0-2.2-1-2.2-2.2s1-2.2 2.2-2.2h36.4c1.2 0 2.2 1 2.2 2.2s-1 2.2-2.2 2.2zm29.2 11.7h-65.6c-1.2 0-2.2-1-2.2-2.2s1-2.2 2.2-2.2h65.6c1.2 0 2.2 1 2.2 2.2 0 1.3-1 2.2-2.2 2.2zm54.1-11.7h-69.3c-1.2 0-2.2-1-2.2-2.2s1-2.2 2.2-2.2h69.3c1.2 0 2.2 1 2.2 2.2 0 1.2-1 2.2-2.2 2.2z"
          />
          <path
            fill="#A4ABED"
            d="M344.9 964.8h-69.3c-1.2 0-2.2-1-2.2-2.2s1-2.2 2.2-2.2h69.3c1.2 0 2.2 1 2.2 2.2 0 1.3-1 2.2-2.2 2.2z"
          />
          <path
            fill="#FFF"
            d="M315.6 787.9c0 2.8 2.3 5.2 5.2 5.2h132.6c2.8 0 5.2-2.3 5.2-5.2v-33.5c0-2.8-2.3-5.2-5.2-5.2H333.1v-.1h-22.6c-2 0-3 2.5-1.6 3.9l6.8 6.5-.1 28.4z"
          />
          <circle cx="285.9" cy="754.8" r="12.4" fill="#A4ABED" />
          <path
            fill="#D7DCF7"
            d="M447 787h-21.1c-1.2 0-2.2-1-2.2-2.2s1-2.2 2.2-2.2H447c1.2 0 2.2 1 2.2 2.2s-1 2.2-2.2 2.2z"
          />
          <path
            fill="#727CD6"
            d="M364.9 764.3h-36.4c-1.2 0-2.2-1-2.2-2.2s1-2.2 2.2-2.2h36.4c1.2 0 2.2 1 2.2 2.2s-1 2.2-2.2 2.2zm29.2 11.7h-65.6c-1.2 0-2.2-1-2.2-2.2s1-2.2 2.2-2.2h65.6c1.2 0 2.2 1 2.2 2.2 0 1.3-1 2.2-2.2 2.2zm54.1-11.7h-69.3c-1.2 0-2.2-1-2.2-2.2s1-2.2 2.2-2.2h69.3c1.2 0 2.2 1 2.2 2.2 0 1.2-1 2.2-2.2 2.2z"
          />
          <path
            fill="#A4ABED"
            d="M424.4 843.5c0 2.8-2.3 5.2-5.2 5.2H286.6c-2.8 0-5.2-2.3-5.2-5.2v-22.2c0-2.8 2.3-5.2 5.2-5.2H407v-.1h22.6c2 0 3 2.5 1.6 3.9l-6.8 6.5v17.1z"
          />
          <circle cx="454.2" cy="821.8" r="12.4" fill="#A4ABED" />
          <path
            fill="#D7DCF7"
            d="M392 842h21c1.2 0 2.2-1 2.2-2.2s-1-2.2-2.2-2.2h-21c-1.2 0-2.2 1-2.2 2.2s1 2.2 2.2 2.2z"
          />
          <path
            fill="#FFF"
            d="M351.1 831.2h51.2c1.2 0 2.2-1 2.2-2.2s-1-2.2-2.2-2.2h-51.2c-1.2 0-2.2 1-2.2 2.2 0 1.3 1 2.2 2.2 2.2zm-59.2 0h47.2c1.2 0 2.2-1 2.2-2.2s-1-2.2-2.2-2.2h-47.2c-1.2 0-2.2 1-2.2 2.2 0 1.3 1 2.2 2.2 2.2z"
          />
          <path fill="#727CD6"
            d="M470.8 975h-62.7v-26.1h62.7c1.8 0 3.2 1.5 3.2 3.2v19.7c0 1.7-1.5 3.2-3.2 3.2z" />
          <path
            fill="#FFF"
            d="M453.8 963.6h-25.5c-1.2 0-2.2-1-2.2-2.2s1-2.2 2.2-2.2h25.5c1.2 0 2.2 1 2.2 2.2s-1 2.2-2.2 2.2z"
          />
        </g>
        <g class="m-organise--shape-stack">
          <path
            fill="#DEE3FF"
            d="M477.5 705.8c0-3.2-2.9-5.7-6.6-5.7H269.4c-3.7 0-6.6 2.5-6.6 5.7v7.8h214.8l-.1-7.8z"
            opacity="0.8"
          />
          <path
            fill="#DEE3FF"
            d="M471.7 692.8c0-3-2.8-5.4-6.3-5.4H275.6c-3.5 0-6.3 2.4-6.3 5.4v7.3h202.4v-7.3z"
            opacity="0.6"
          />
          <path
            fill="#DEE3FF"
            d="M465.6 680.5c0-2.8-2.6-5.1-5.9-5.1H281.3c-3.3 0-5.9 2.2-5.9 5.1v6.9h190.1v-6.9h.1z"
            opacity="0.4"
          />
          <path
            fill="#DEE3FF"
            d="M459.4 669.1c0-2.6-2.4-4.7-5.5-4.7H287.1c-3.1 0-5.5 2.1-5.5 4.7v6.4h177.8v-6.4z"
            opacity="0.2"
          />
          <path
            fill="#DEE3FF"
            d="M453.8 658.3c0-2.5-2.3-4.4-5.2-4.4H292.3c-2.9 0-5.2 2-5.2 4.4v6.1h166.7v-6.1z"
            opacity="0.05"
          />
        </g>
      </g>
      <g class="m-organise--shape-element m-organise--shape-element-player">
        <g>
          <path
            fill="#DEE3FF"
            class="m-organise--shape-element-multiple-stroke"
            d="M479.8 633.7H261.2c-4 0-7.2-3.2-7.2-7.2v-359c0-4 3.2-7.2 7.2-7.2h218.6c4 0 7.2 3.2 7.2 7.2v359.1c0 3.9-3.2 7.1-7.2 7.1z"
          />
          <path
            fill="#FFF"
            d="M467.3 617.5H273.7c-4 0-7.2-3.2-7.2-7.2V380.6c0-4 3.2-7.2 7.2-7.2h193.7c4 0 7.2 3.2 7.2 7.2v229.7c-.1 4-3.3 7.2-7.3 7.2z"
          />
          <path
            fill="#A4ABED"
            d="M455.2 531.9H285.8c-.8 0-1.4.6-1.4 1.4 0 .8.6 1.4 1.4 1.4h169.5c.8 0 1.4-.6 1.4-1.4 0-.8-.7-1.4-1.5-1.4zm-160.6-9h-8.8c-.8 0-1.4.6-1.4 1.4 0 .8.6 1.4 1.4 1.4h8.8c.8 0 1.4-.6 1.4-1.4 0-.7-.6-1.4-1.4-1.4zm160.6 0h-8.8c-.8 0-1.4.6-1.4 1.4 0 .8.6 1.4 1.4 1.4h8.8c.8 0 1.4-.6 1.4-1.4 0-.7-.6-1.4-1.4-1.4z"
          />
          <path fill="#727CD6"
            d="M 425.7 532.427 L 285.8 532.427 C 285 532.427 284.4 532.913 284.4 533.563 C 284.4 534.213 285 534.7 285.8 534.7 L 425.7 534.7 C 426.5 534.7 427.1 534.213 427.1 533.563 C 427.1 532.913 426.5 532.427 425.7 532.427 Z M 420.3 501.324 L 320.6 501.324 C 319 501.324 317.7 500.268 317.7 498.968 C 317.7 497.67 319 496.614 320.6 496.614 L 420.3 496.614 C 421.9 496.614 423.2 497.67 423.2 498.968 C 423.2 500.268 421.9 501.324 420.3 501.324 Z"
            style=""></path>
          <path
            fill="#A4ABED"
            d="M443.6 457.3H297.4c-2 0-3.6-1.6-3.6-3.6V307.5c0-2 1.6-3.6 3.6-3.6h146.2c2 0 3.6 1.6 3.6 3.6v146.2c0 2-1.6 3.6-3.6 3.6z"
          />
          <path
            fill="#727CD6"
            d="M367.8 560.8l13.4 13.4c.9.9.9 2.4 0 3.4L367.8 591c-1.5 1.5-4.1.4-4.1-1.7v-26.7c.1-2.2 2.6-3.3 4.1-1.8z"
          />
          <path
            fill="#D7DCF7"
            d="M415.3 575.2l-5.2-5.2c-.6-.6-1.6-.2-1.6.6v3.9L404 570c-.6-.6-1.6-.2-1.6.6v10.3c0 .8 1 1.2 1.6.6l4.5-4.5v3.9c0 .8 1 1.2 1.6.6l5.2-5.2c.4-.1.4-.7 0-1.1zm-78.3-5.1l-4.5 4.5v-3.9c0-.8-1-1.2-1.6-.6l-5.2 5.2c-.4.4-.4.9 0 1.3l5.2 5.2c.6.6 1.6.2 1.6-.6v-3.9l4.5 4.5c.6.6 1.6.2 1.6-.6v-10.3c-.1-1-1.1-1.4-1.6-.8z"
          />
          <path
            fill="#FFF"
            d="M370.5 325c-28.1 0-50.9 22.8-50.9 50.9s22.8 50.9 50.9 50.9 50.9-22.8 50.9-50.9-22.8-50.9-50.9-50.9zm0 63.4c-6.9 0-12.5-5.6-12.5-12.5s5.6-12.5 12.5-12.5S383 369 383 375.9c0 7-5.6 12.5-12.5 12.5z"
          />
          <path
            fill="#DEE3FF"
            d="M417.1 356.3c-3.8-9.1-10.2-16.8-18.3-22.2-4-2.7-8.5-4.9-13.2-6.4-4.8-1.5-9.8-2.3-15-2.3-7 0-13.6 1.4-19.7 4-9.1 3.8-16.8 10.2-22.2 18.3-2.7 4-4.9 8.5-6.4 13.2-1.5 4.8-2.3 9.8-2.3 15 0 7 1.4 13.6 4 19.7 3.8 9.1 10.2 16.8 18.3 22.2 8.1 5.5 17.8 8.6 28.3 8.6 7 0 13.6-1.4 19.7-4 9.1-3.8 16.8-10.2 22.2-18.3 5.5-8.1 8.6-17.8 8.6-28.3 0-6.8-1.4-13.5-4-19.5zm-17 32.2c-2.4 5.8-6.5 10.7-11.7 14.2-2.6 1.7-5.4 3.1-8.4 4s-6.2 1.4-9.6 1.4c-4.5 0-8.7-.9-12.5-2.5-5.8-2.4-10.7-6.5-14.2-11.7-1.7-2.6-3.1-5.4-4-8.4s-1.4-6.2-1.4-9.6c0-4.5.9-8.7 2.5-12.5 2.4-5.8 6.5-10.7 11.7-14.2 2.6-1.7 5.4-3.1 8.4-4s6.2-1.4 9.6-1.4c4.5 0 8.7.9 12.5 2.5 5.8 2.4 10.7 6.5 14.2 11.7 1.7 2.6 3.1 5.4 4 8.4s1.4 6.2 1.4 9.6c.1 4.4-.8 8.6-2.5 12.5z"
          />
          <text
            style="fill: rgb(164, 171, 237); font-family: Arial, sans-serif; font-size: 12.6px; font-weight: 700; white-space: pre;"
            x="340.714" y="486.324">John Doe</text>
        </g>
        <g class="m-organise--shape-stack">
          <path
            fill="#DEE3FF"
            d="M477.5 252.6c0-3.2-2.9-5.7-6.6-5.7H269.4c-3.7 0-6.6 2.5-6.6 5.7v7.8h214.8l-.1-7.8z"
            opacity=".8"
          />
          <path
            fill="#DEE3FF"
            d="M471.7 239.5c0-3-2.8-5.4-6.3-5.4H275.6c-3.5 0-6.3 2.4-6.3 5.4v7.4h202.4v-7.4z"
            opacity=".6"
          />
          <path
            fill="#DEE3FF"
            d="M465.6 227.3c0-2.8-2.6-5.1-5.9-5.1H281.3c-3.3 0-5.9 2.2-5.9 5.1v6.9h190.1v-6.9h.1z"
            opacity=".4"
          />
          <path
            fill="#DEE3FF"
            d="M459.4 215.9c0-2.6-2.4-4.7-5.5-4.7H287.1c-3.1 0-5.5 2.1-5.5 4.7v6.4h177.8v-6.4z"
            opacity=".2"
          />
          <path
            fill="#DEE3FF"
            d="M453.8 205.1c0-2.5-2.3-4.4-5.2-4.4H292.3c-2.9 0-5.2 2-5.2 4.4v6.1h166.7v-6.1z"
            opacity=".05"
          />
        </g>
        <g class="m-organise--shape-collection">
          <path
            fill="#FFF"
            d="M254 549.5v10h233v-10c3.3 0 8 6.7 8 10v70c0 3.3-2.7 6-6 6H252c-3.3 0-6-2.7-6-6v-70c.1-3.3 4.7-10 8-10z"
          />
          <path
            fill="#DADCED"
            d="M379.2 586.3h-17.3c-1.4 0-2.5-1.1-2.5-2.5s1.1-2.5 2.5-2.5h17.3c1.4 0 2.5 1.1 2.5 2.5.1 1.3-1.1 2.5-2.5 2.5z"
          />

          <text
            style="fill: rgb(137, 142, 229); font-family: Arial, sans-serif; font-size: 11.4px; font-weight: 700; white-space: pre;"
            x="326.77" y="609.47">2nd March, 2024</text>
        </g>
      </g>
      <g class="m-organise--shape-element m-organise--shape-element-notification">
        <g>
          <path
            fill="#DEE3FF"
            d="M733.2 739.6H514.6c-4 0-7.2-3.2-7.2-7.2V448.3c0-4 3.2-7.2 7.2-7.2h218.6c4 0 7.2 3.2 7.2 7.2v284.1c0 4-3.2 7.2-7.2 7.2z"
          />
          <path
            fill="#FFF"
            d="M538.1 739.6V511.3c0-7.6 6.2-13.8 13.8-13.8h144c7.6 0 13.8 6.2 13.8 13.8v228.3H538.1z"
          />
          <path fill="#A4ABED"
            d="M696.7 739.6H551V543.8c0-1.7 1.3-3 3-3h139.7c1.7 0 3 1.3 3 3v195.8z" />
          <path
            fill="#727CDD"
            d="M613.9 523.6h20c.7 0 1.4.4 1.7 1.1.1-.3.2-.5.2-.8 0-1-.9-1.9-1.9-1.9h-20c-1 0-1.9.9-1.9 1.9 0 .3.1.6.2.8.3-.7.9-1.1 1.7-1.1z"
          />
          <path
            fill="#A4ABED"
            d="M613.9 525.7h20c.7 0 1.4-.4 1.7-1.1-.3-.6-1-1.1-1.7-1.1h-20c-.7 0-1.4.4-1.7 1.1.3.7.9 1.1 1.7 1.1zm10-7.1c-1 0-1.9-.9-1.9-1.9s.9-1.9 1.9-1.9c1 0 1.9.9 1.9 1.9s-.9 1.9-1.9 1.9zM538.1 572c-1.8 0-3.3 0-3.3-3.3v-16.2c0-3 1.5-3.3 3.3-3.3V572zm0 27.4c-1.8 0-3.3 0-3.3-3.3v-16.2c0-3 1.5-3.3 3.3-3.3v22.8z"
          />
          <path
            fill="#727CD6"
            d="M682 688.1H565.7c-2 0-3.7-1.6-3.7-3.7v-64.6c0-2 1.6-3.7 3.7-3.7H682c2 0 3.7 1.6 3.7 3.7v64.6c0 2.1-1.7 3.7-3.7 3.7z"
          />
          <path
            fill="#FFF"
            d="M682 685.1H565.7c-2 0-3.7-1.6-3.7-3.7v-79c0-2 1.6-3.7 3.7-3.7H682c2 0 3.7 1.6 3.7 3.7v79c0 2.1-1.7 3.7-3.7 3.7z"
          />
          <path
            fill="#727CD6"
            d="M605.1 636.1H577c-1 0-1.9-.8-1.9-1.9 0-1 .8-1.9 1.9-1.9h28.1c1 0 1.9.8 1.9 1.9 0 1-.9 1.9-1.9 1.9z"
          />
          <path
            fill="#D7DCF7"
            d="M592.1 553.5H564c-1 0-1.9-.8-1.9-1.9 0-1 .8-1.9 1.9-1.9h28.1c1 0 1.9.8 1.9 1.9-.1 1.1-.9 1.9-1.9 1.9zm91.3 0h-10.5c-1 0-1.9-.8-1.9-1.9 0-1 .8-1.9 1.9-1.9h10.5c1 0 1.9.8 1.9 1.9 0 1.1-.9 1.9-1.9 1.9z"
          />
          <path
            fill="#A4ABED"
            d="M629.6 616.9h-52c-1.4 0-2.5-1.1-2.5-2.5s1.1-2.5 2.5-2.5h52c1.4 0 2.5 1.1 2.5 2.5 0 1.3-1.2 2.5-2.5 2.5z"
          />
          <path
            fill="#6671D3"
            d="M670.5 616.9h-7.9c-1.4 0-2.5-1.1-2.5-2.5s1.1-2.5 2.5-2.5h7.9c1.4 0 2.5 1.1 2.5 2.5 0 1.3-1.2 2.5-2.5 2.5z"
          />
          <path
            fill="#727CD6"
            d="M660.7 636.1h-45.3c-1 0-1.9-.8-1.9-1.9s.8-1.9 1.9-1.9h45.3c1 0 1.9.8 1.9 1.9s-.9 1.9-1.9 1.9zm-43.8 9.7H577c-1 0-1.9-.8-1.9-1.9 0-1 .8-1.9 1.9-1.9h39.8c1 0 1.9.8 1.9 1.9s-.8 1.9-1.8 1.9zm53.7 30.2h-93.8c-1.4 0-2.5-1.1-2.5-2.5v-13.6c0-1.4 1.1-2.5 2.5-2.5h93.8c1.4 0 2.5 1.1 2.5 2.5v13.6c0 1.4-1.1 2.5-2.5 2.5zm.8-30.2h-43.8c-1 0-1.9-.8-1.9-1.9 0-1 .8-1.9 1.9-1.9h43.8c1 0 1.9.8 1.9 1.9-.1 1.1-.9 1.9-1.9 1.9z"
          />
          <path fill="#898EE5"
            d="M654 667.7h-60.4c-.6 0-1-.5-1-1s.5-1 1-1H654c.6 0 1 .5 1 1s-.5 1-1 1z" />
          <path
            fill="none"
            class="m-organise--shape-element-multiple-stroke"
            d="M733.2 739.6H514.6c-4 0-7.2-3.2-7.2-7.2V448.3c0-4 3.2-7.2 7.2-7.2h218.6c4 0 7.2 3.2 7.2 7.2v284.1c0 4-3.2 7.2-7.2 7.2z"
          />
        </g>
        <g class="m-organise--shape-stack">
          <path
            fill="#DEE3FF"
            d="M731.8 433.3c0-3.2-2.9-5.7-6.6-5.7H523.6c-3.7 0-6.6 2.5-6.6 5.7v7.8h214.8v-7.8z"
            opacity=".8"
          />
          <path
            fill="#DEE3FF"
            d="M725.9 420.3c0-3-2.8-5.4-6.3-5.4H529.8c-3.5 0-6.3 2.4-6.3 5.4v7.3h202.4v-7.3z"
            opacity=".6"
          />
          <path
            fill="#DEE3FF"
            d="M719.8 408.1c0-2.8-2.6-5.1-5.9-5.1H535.5c-3.3 0-5.9 2.2-5.9 5.1v6.8h190.1v-6.8h.1z"
            opacity=".4"
          />
          <path
            fill="#DEE3FF"
            d="M713.6 396.6c0-2.6-2.4-4.7-5.5-4.7H541.3c-3.1 0-5.5 2.1-5.5 4.7v6.4h177.8v-6.4z"
            opacity=".2"
          />
          <path
            fill="#DEE3FF"
            d="M708.1 385.9c0-2.5-2.3-4.4-5.2-4.4H546.5c-2.9 0-5.2 2-5.2 4.4v6H708l.1-6z"
            opacity=".05"
          />
        </g>
        <g class="m-organise--shape-collection">
          <path
            fill="#FFF"
            d="M507.3 673.5v10h233v-10c3.3 0 8 6.7 8 10v70c0 3.3-2.7 6-6 6h-237c-3.3 0-6-2.7-6-6v-70c.1-3.3 4.8-10 8-10z"
          />
          <path
            fill="#DADCED"
            d="M632.6 710.3h-17.3c-1.4 0-2.5-1.1-2.5-2.5s1.1-2.5 2.5-2.5h17.3c1.4 0 2.5 1.1 2.5 2.5 0 1.3-1.2 2.5-2.5 2.5z"
          />
          <text
            style="fill: rgb(137, 142, 229); font-family: Arial, sans-serif; font-size: 11.4px; font-weight: 700; white-space: pre;"
            x="579.51" y="732.291">3rd March, 2024</text>
        </g>
      </g>
      <g class="m-organise--shape-element m-organise--shape-element-text">
        <g>
          <path fill="#DEE3FF"
            d="M507.6 45.7v308c0 4 3.2 7.2 7.2 7.2h218.6c4 0 7.2-3.2 7.2-7.2v-308h-233z" />
          <path fill="#A4ABED"
            d="M740.6 7.2c0-4-3.2-7.2-7.2-7.2H514.8c-4 0-7.2 3.2-7.2 7.2v38.5h233V7.2z" />
          <path
            fill="#727CD6"
            d="M628.5 24.7c.9 0 1.8-.8 1.7-1.8 0-1-.8-1.8-1.8-1.8h-77.6c-1 0-1.8.8-1.8 1.8s.8 1.8 1.8 1.8h77.7zm-95.6 5.2c2 0 3.7-1.7 3.7-3.7v-6c0-2-1.6-3.7-3.7-3.7h-6c-2 0-3.7 1.6-3.7 3.7v6c0 2 1.6 3.7 3.7 3.7h6z"
          />
          <path
            fill="#FFF"
            d="M656 212.4H525.7c-1.6 0-2.9-1.3-2.9-2.9s1.3-2.9 2.9-2.9H656c1.6 0 2.9 1.3 2.9 2.9 0 1.6-1.3 2.9-2.9 2.9zm62.3 0h-46.6c-1.6 0-2.9-1.3-2.9-2.9s1.3-2.9 2.9-2.9h46.6c1.6 0 2.9 1.3 2.9 2.9.1 1.6-1.2 2.9-2.9 2.9z"
          />
          <path
            fill="#A4ABED"
            d="M687.8 230.3h-99.6c-1.6 0-2.9-1.3-2.9-2.9s1.3-2.9 2.9-2.9h99.6c1.6 0 2.9 1.3 2.9 2.9 0 1.5-1.3 2.9-2.9 2.9z"
          />
          <path
            fill="#FFF"
            d="M572.3 230.3h-46.6c-1.6 0-2.9-1.3-2.9-2.9s1.3-2.9 2.9-2.9h46.6c1.6 0 2.9 1.3 2.9 2.9 0 1.5-1.3 2.9-2.9 2.9zm46.2 18.2h-92.8c-1.6 0-2.9-1.3-2.9-2.9 0-1.6 1.3-2.9 2.9-2.9h92.8c1.6 0 2.9 1.3 2.9 2.9 0 1.5-1.3 2.9-2.9 2.9zm81.2 0h-65.4c-1.6 0-2.9-1.3-2.9-2.9 0-1.6 1.3-2.9 2.9-2.9h65.4c1.6 0 2.9 1.3 2.9 2.9.1 1.5-1.3 2.9-2.9 2.9zm-127.4 17.8h-46.6c-1.6 0-2.9-1.3-2.9-2.9s1.3-2.9 2.9-2.9h46.6c1.6 0 2.9 1.3 2.9 2.9s-1.3 2.9-2.9 2.9z"
          />
          <path
            fill="#A4ABED"
            d="M604.6 297.5h-78.9c-1.6 0-2.9-1.3-2.9-2.9s1.3-2.9 2.9-2.9h78.9c1.6 0 2.9 1.3 2.9 2.9 0 1.7-1.3 2.9-2.9 2.9zm87 0h-71.2c-1.6 0-2.9-1.3-2.9-2.9s1.3-2.9 2.9-2.9h71.2c1.6 0 2.9 1.3 2.9 2.9.1 1.7-1.2 2.9-2.9 2.9z"
          />
          <path
            fill="#FFF"
            d="M702.4 315.4h-92.9c-1.6 0-2.9-1.3-2.9-2.9s1.3-2.9 2.9-2.9h93c1.6 0 2.9 1.3 2.9 2.9-.1 1.6-1.3 2.9-3 2.9zm-108.8 0h-67.9c-1.6 0-2.9-1.3-2.9-2.9s1.3-2.9 2.9-2.9h67.9c1.6 0 2.9 1.3 2.9 2.9s-1.3 2.9-2.9 2.9zm-28.9 18.2h-38.9c-1.6 0-2.9-1.3-2.9-2.9s1.3-2.9 2.9-2.9h38.9c1.6 0 2.9 1.3 2.9 2.9-.1 1.5-1.4 2.9-2.9 2.9zm71.6 0c1.6 0 2.9-1.3 2.9-2.9s-1.3-2.9-2.9-2.9h-55.9c-1.6 0-2.9 1.3-2.9 2.9s1.3 2.9 2.9 2.9h55.9zM656 71.4H525.7c-1.6 0-2.9-1.3-2.9-2.9s1.3-2.9 2.9-2.9H656c1.6 0 2.9 1.3 2.9 2.9s-1.3 2.9-2.9 2.9zm62.3 0h-46.6c-1.6 0-2.9-1.3-2.9-2.9s1.3-2.9 2.9-2.9h46.6c1.6 0 2.9 1.3 2.9 2.9.1 1.6-1.2 2.9-2.9 2.9z"
          />
          <path
            fill="#A4ABED"
            d="M687.8 89.3h-99.6c-1.6 0-2.9-1.3-2.9-2.9s1.3-2.9 2.9-2.9h99.6c1.6 0 2.9 1.3 2.9 2.9 0 1.5-1.3 2.9-2.9 2.9z"
          />
          <path
            fill="#FFF"
            d="M572.3 89.3h-46.6c-1.6 0-2.9-1.3-2.9-2.9s1.3-2.9 2.9-2.9h46.6c1.6 0 2.9 1.3 2.9 2.9 0 1.5-1.3 2.9-2.9 2.9zm46.2 18.2h-92.8c-1.6 0-2.9-1.3-2.9-2.9s1.3-2.9 2.9-2.9h92.8c1.6 0 2.9 1.3 2.9 2.9 0 1.5-1.3 2.9-2.9 2.9zm81.2 0h-65.4c-1.6 0-2.9-1.3-2.9-2.9s1.3-2.9 2.9-2.9h65.4c1.6 0 2.9 1.3 2.9 2.9.1 1.5-1.3 2.9-2.9 2.9zm-97.4 17.8h-76.6c-1.6 0-2.9-1.3-2.9-2.9s1.3-2.9 2.9-2.9h76.6c1.6 0 2.9 1.3 2.9 2.9s-1.3 2.9-2.9 2.9z"
          />
          <path
            fill="#FFF"
            d="M572.3 143.3h-46.6c-1.6 0-2.9-1.3-2.9-2.9 0-1.6 1.3-2.9 2.9-2.9h46.6c1.6 0 2.9 1.3 2.9 2.9s-1.3 2.9-2.9 2.9zm130.1 31.1h-92.9c-1.6 0-2.9-1.3-2.9-2.9s1.3-2.9 2.9-2.9h93c1.6 0 2.9 1.3 2.9 2.9-.1 1.6-1.3 2.9-3 2.9zm-108.8 0h-67.9c-1.6 0-2.9-1.3-2.9-2.9s1.3-2.9 2.9-2.9h67.9c1.6 0 2.9 1.3 2.9 2.9 0 1.6-1.3 2.9-2.9 2.9zm-28.9 18.2h-38.9c-1.6 0-2.9-1.3-2.9-2.9s1.3-2.9 2.9-2.9h38.9c1.6 0 2.9 1.3 2.9 2.9-.1 1.5-1.4 2.9-2.9 2.9zm71.6 0c1.6 0 2.9-1.3 2.9-2.9s-1.3-2.9-2.9-2.9h-55.9c-1.6 0-2.9 1.3-2.9 2.9s1.3 2.9 2.9 2.9h55.9z"
          />
        </g>
        <g class="m-organise--shape-collection">
          <path
            fill="#FFF"
            d="M507.3 275.5v10h233v-10c3.3 0 8 6.7 8 10v70c0 3.3-2.7 6-6 6h-237c-3.3 0-6-2.7-6-6v-70c.1-3.3 4.8-10 8-10z"
          />
          <path
            fill="#DADCED"
            d="M632.6 312.3h-17.3c-1.4 0-2.5-1.1-2.5-2.5s1.1-2.5 2.5-2.5h17.3c1.4 0 2.5 1.1 2.5 2.5 0 1.3-1.2 2.5-2.5 2.5z"
          />
          <text
            style="fill: rgb(137, 142, 229); font-family: Arial, sans-serif; font-size: 11.5px; font-weight: 700; white-space: pre;"
            x="581.261" y="333.691">1st March, 2024</text>
        </g>
      </g>

    </g>
    <g class="m-organise--shape-select-tag" filter="url(#organise-shape-select-tag-shadow)">
      <path fill="#FFF"
        d="M435.6 179.9c0-3.2-2.6-5.8-5.8-5.8H214.9c-3.2 0-5.8 2.6-5.8 5.8v37.4h226.5v-37.4z"></path>
      <rect x="209.1" y="217.3" width="226.5" height="181.71" style="" fill="#F4F8FB"></rect>
      <path fill="#F4F8FB"
        d="M 209.1 423.254 C 209.1 426.454 211.7 429.054 214.9 429.054 L 429.8 429.054 C 433 429.054 435.6 426.454 435.6 423.254 L 435.6 399.354 L 209.1 399.354 L 209.1 423.254 Z"></path>
      <polygon fill="#7A7DE1" points="209.123 217.36 209.123 253.185 435.623 253.185 435.623 217.36"
        style=""></polygon>
      <path fill="#CEDDE9" d="M209.1 253.4h226.5v.9H209.1zm0 36.3h226.5v.9H209.1z"></path>
      <path d="M 209.1 324.807 L 435.6 324.807 L 435.6 363 L 209.1 363 L 209.1 324.807 Z"
        style="fill: rgb(122, 125, 225);"></path>
      <path
        d="M 419.92 416.483 C 419.42 415.383 418.62 414.383 417.62 413.683 C 416.62 412.983 415.42 412.583 414.12 412.583 C 413.22 412.583 412.42 412.783 411.62 413.083 C 410.52 413.583 409.52 414.383 408.82 415.383 C 408.12 416.383 407.72 417.583 407.72 418.883 C 407.72 419.783 407.92 420.583 408.22 421.383 C 408.72 422.483 409.52 423.483 410.52 424.183 C 411.52 424.883 412.72 425.283 414.02 425.283 C 414.92 425.283 415.72 425.083 416.52 424.783 C 417.62 424.283 418.62 423.483 419.32 422.483 C 420.02 421.483 420.42 420.283 420.42 418.983 C 420.42 418.083 420.22 417.183 419.92 416.483 Z M 418.92 420.983 C 418.52 421.883 417.82 422.683 417.02 423.283 C 416.22 423.883 415.22 424.183 414.12 424.183 C 413.42 424.183 412.72 424.083 412.12 423.783 C 411.22 423.383 410.42 422.683 409.82 421.883 C 409.22 421.083 408.92 420.083 408.92 418.983 C 408.92 418.283 409.02 417.583 409.32 416.983 C 409.72 416.083 410.42 415.283 411.22 414.683 C 412.02 414.083 413.02 413.783 414.12 413.783 C 414.82 413.783 415.52 413.883 416.12 414.183 C 417.02 414.583 417.82 415.283 418.42 416.083 C 419.02 416.883 419.32 417.883 419.32 418.983 C 419.32 419.683 419.22 420.283 418.92 420.983 Z M 417.02 418.383 L 411.22 418.383 C 410.92 418.383 410.62 418.683 410.62 418.983 C 410.62 419.283 410.92 419.583 411.22 419.583 L 417.02 419.583 C 417.32 419.583 417.62 419.283 417.62 418.983 C 417.52 418.583 417.32 418.383 417.02 418.383 Z"
        style="fill: rgb(32, 24, 74);"></path>
      <path
        d="M 236.957 341.456 C 236.457 340.256 235.557 339.156 234.457 338.456 C 233.357 337.756 232.057 337.256 230.657 337.256 C 229.757 337.256 228.857 337.456 228.057 337.756 C 226.857 338.256 225.757 339.156 225.057 340.256 C 224.357 341.356 223.857 342.656 223.857 344.056 C 223.857 344.956 224.057 345.856 224.357 346.656 C 224.857 347.856 225.757 348.956 226.857 349.656 C 227.957 350.356 229.257 350.856 230.657 350.856 C 231.557 350.856 232.457 350.656 233.257 350.356 C 234.457 349.856 235.557 348.956 236.257 347.856 C 236.957 346.756 237.457 345.456 237.457 344.056 C 237.557 343.156 237.357 342.256 236.957 341.456 Z M 235.857 346.256 C 235.457 347.256 234.757 348.156 233.857 348.756 C 232.957 349.356 231.857 349.756 230.757 349.756 C 229.957 349.756 229.257 349.556 228.557 349.356 C 227.557 348.956 226.657 348.256 226.057 347.356 C 225.457 346.456 225.057 345.356 225.057 344.256 C 225.057 343.456 225.257 342.756 225.457 342.056 C 225.857 341.056 226.557 340.156 227.457 339.556 C 228.357 338.956 229.457 338.556 230.557 338.556 C 231.357 338.556 232.057 338.756 232.757 338.956 C 233.757 339.356 234.657 340.056 235.257 340.956 C 235.857 341.856 236.257 342.956 236.257 344.056 C 236.357 344.856 236.157 345.556 235.857 346.256 Z M 233.857 343.456 L 231.357 343.456 L 231.357 340.956 C 231.357 340.656 231.057 340.356 230.757 340.356 C 230.457 340.356 230.157 340.656 230.157 340.956 L 230.157 343.456 L 227.657 343.456 C 227.357 343.456 227.057 343.756 227.057 344.056 C 227.057 344.356 227.357 344.656 227.657 344.656 L 230.157 344.656 L 230.157 347.156 C 230.157 347.456 230.457 347.756 230.757 347.756 C 231.057 347.756 231.357 347.456 231.357 347.156 L 231.357 344.656 L 233.857 344.656 C 234.157 344.656 234.457 344.356 234.457 344.056 C 234.457 343.756 234.157 343.456 233.857 343.456 Z"
        style="fill: rgb(255, 255, 255);"></path>
      <text
        style="fill: rgb(51, 51, 51); font-family: Arial, sans-serif; font-size: 10.7px; font-weight: 700; white-space: pre;"
        x="291.794" y="201.054">John Doe</text>
      <path
        d="M 418.734 378.673 C 418.234 377.573 417.434 376.573 416.434 375.873 C 415.434 375.173 414.234 374.773 412.934 374.773 C 412.034 374.773 411.234 374.973 410.434 375.273 C 409.334 375.773 408.334 376.573 407.634 377.573 C 406.934 378.573 406.534 379.773 406.534 381.073 C 406.534 381.973 406.734 382.773 407.034 383.573 C 407.534 384.673 408.334 385.673 409.334 386.373 C 410.334 387.073 411.534 387.473 412.834 387.473 C 413.734 387.473 414.534 387.273 415.334 386.973 C 416.434 386.473 417.434 385.673 418.134 384.673 C 418.834 383.673 419.234 382.473 419.234 381.173 C 419.234 380.273 419.034 379.373 418.734 378.673 Z M 417.734 383.173 C 417.334 384.073 416.634 384.873 415.834 385.473 C 415.034 386.073 414.034 386.373 412.934 386.373 C 412.234 386.373 411.534 386.273 410.934 385.973 C 410.034 385.573 409.234 384.873 408.634 384.073 C 408.034 383.273 407.734 382.273 407.734 381.173 C 407.734 380.473 407.834 379.773 408.134 379.173 C 408.534 378.273 409.234 377.473 410.034 376.873 C 410.834 376.273 411.834 375.973 412.934 375.973 C 413.634 375.973 414.334 376.073 414.934 376.373 C 415.834 376.773 416.634 377.473 417.234 378.273 C 417.834 379.073 418.134 380.073 418.134 381.173 C 418.134 381.873 418.034 382.473 417.734 383.173 Z M 415.834 380.573 L 410.034 380.573 C 409.734 380.573 409.434 380.873 409.434 381.173 C 409.434 381.473 409.734 381.773 410.034 381.773 L 415.834 381.773 C 416.134 381.773 416.434 381.473 416.434 381.173 C 416.334 380.773 416.134 380.573 415.834 380.573 Z"
        style="fill: rgb(32, 24, 74);"></path>
      <path
        d="M 416.336 303.688 C 415.836 302.588 415.036 301.588 414.036 300.888 C 413.036 300.188 411.836 299.788 410.536 299.788 C 409.636 299.788 408.836 299.988 408.036 300.288 C 406.936 300.788 405.936 301.588 405.236 302.588 C 404.536 303.588 404.136 304.788 404.136 306.088 C 404.136 306.988 404.336 307.788 404.636 308.588 C 405.136 309.688 405.936 310.688 406.936 311.388 C 407.936 312.088 409.136 312.488 410.436 312.488 C 411.336 312.488 412.136 312.288 412.936 311.988 C 414.036 311.488 415.036 310.688 415.736 309.688 C 416.436 308.688 416.836 307.488 416.836 306.188 C 416.836 305.288 416.636 304.388 416.336 303.688 Z M 415.336 308.188 C 414.936 309.088 414.236 309.888 413.436 310.488 C 412.636 311.088 411.636 311.388 410.536 311.388 C 409.836 311.388 409.136 311.288 408.536 310.988 C 407.636 310.588 406.836 309.888 406.236 309.088 C 405.636 308.288 405.336 307.288 405.336 306.188 C 405.336 305.488 405.436 304.788 405.736 304.188 C 406.136 303.288 406.836 302.488 407.636 301.888 C 408.436 301.288 409.436 300.988 410.536 300.988 C 411.236 300.988 411.936 301.088 412.536 301.388 C 413.436 301.788 414.236 302.488 414.836 303.288 C 415.436 304.088 415.736 305.088 415.736 306.188 C 415.736 306.888 415.636 307.488 415.336 308.188 Z M 413.436 305.588 L 407.636 305.588 C 407.336 305.588 407.036 305.888 407.036 306.188 C 407.036 306.488 407.336 306.788 407.636 306.788 L 413.436 306.788 C 413.736 306.788 414.036 306.488 414.036 306.188 C 413.936 305.788 413.736 305.588 413.436 305.588 Z"
        style="fill: rgb(32, 24, 74);"></path>
      <path
        d="M 415.407 268.889 C 414.907 267.789 414.107 266.789 413.107 266.089 C 412.107 265.389 410.907 264.989 409.607 264.989 C 408.707 264.989 407.907 265.189 407.107 265.489 C 406.007 265.989 405.007 266.789 404.307 267.789 C 403.607 268.789 403.207 269.989 403.207 271.289 C 403.207 272.189 403.407 272.989 403.707 273.789 C 404.207 274.889 405.007 275.889 406.007 276.589 C 407.007 277.289 408.207 277.689 409.507 277.689 C 410.407 277.689 411.207 277.489 412.007 277.189 C 413.107 276.689 414.107 275.889 414.807 274.889 C 415.507 273.889 415.907 272.689 415.907 271.389 C 415.907 270.489 415.707 269.589 415.407 268.889 Z M 414.407 273.389 C 414.007 274.289 413.307 275.089 412.507 275.689 C 411.707 276.289 410.707 276.589 409.607 276.589 C 408.907 276.589 408.207 276.489 407.607 276.189 C 406.707 275.789 405.907 275.089 405.307 274.289 C 404.707 273.489 404.407 272.489 404.407 271.389 C 404.407 270.689 404.507 269.989 404.807 269.389 C 405.207 268.489 405.907 267.689 406.707 267.089 C 407.507 266.489 408.507 266.189 409.607 266.189 C 410.307 266.189 411.007 266.289 411.607 266.589 C 412.507 266.989 413.307 267.689 413.907 268.489 C 414.507 269.289 414.807 270.289 414.807 271.389 C 414.807 272.089 414.707 272.689 414.407 273.389 Z M 412.507 270.789 L 406.707 270.789 C 406.407 270.789 406.107 271.089 406.107 271.389 C 406.107 271.689 406.407 271.989 406.707 271.989 L 412.507 271.989 C 412.807 271.989 413.107 271.689 413.107 271.389 C 413.007 270.989 412.807 270.789 412.507 270.789 Z"
        style="fill: rgb(32, 24, 74);"></path>
      <path
        d="M 236.994 231.584 C 236.494 230.384 235.594 229.284 234.494 228.584 C 233.394 227.884 232.094 227.384 230.694 227.384 C 229.794 227.384 228.894 227.584 228.094 227.884 C 226.894 228.384 225.794 229.284 225.094 230.384 C 224.394 231.484 223.894 232.784 223.894 234.184 C 223.894 235.084 224.094 235.984 224.394 236.784 C 224.894 237.984 225.794 239.084 226.894 239.784 C 227.994 240.484 229.294 240.984 230.694 240.984 C 231.594 240.984 232.494 240.784 233.294 240.484 C 234.494 239.984 235.594 239.084 236.294 237.984 C 236.994 236.884 237.494 235.584 237.494 234.184 C 237.594 233.284 237.394 232.384 236.994 231.584 Z M 235.894 236.384 C 235.494 237.384 234.794 238.284 233.894 238.884 C 232.994 239.484 231.894 239.884 230.794 239.884 C 229.994 239.884 229.294 239.684 228.594 239.484 C 227.594 239.084 226.694 238.384 226.094 237.484 C 225.494 236.584 225.094 235.484 225.094 234.384 C 225.094 233.584 225.294 232.884 225.494 232.184 C 225.894 231.184 226.594 230.284 227.494 229.684 C 228.394 229.084 229.494 228.684 230.594 228.684 C 231.394 228.684 232.094 228.884 232.794 229.084 C 233.794 229.484 234.694 230.184 235.294 231.084 C 235.894 231.984 236.294 233.084 236.294 234.184 C 236.394 234.984 236.194 235.684 235.894 236.384 Z M 233.894 233.584 L 231.394 233.584 L 231.394 231.084 C 231.394 230.784 231.094 230.484 230.794 230.484 C 230.494 230.484 230.194 230.784 230.194 231.084 L 230.194 233.584 L 227.694 233.584 C 227.394 233.584 227.094 233.884 227.094 234.184 C 227.094 234.484 227.394 234.784 227.694 234.784 L 230.194 234.784 L 230.194 237.284 C 230.194 237.584 230.494 237.884 230.794 237.884 C 231.094 237.884 231.394 237.584 231.394 237.284 L 231.394 234.784 L 233.894 234.784 C 234.194 234.784 234.494 234.484 234.494 234.184 C 234.494 233.884 234.194 233.584 233.894 233.584 Z"
        style="fill: rgb(255, 255, 255);"></path>
      <text
        style="fill: rgb(255, 255, 255); font-family: Arial, sans-serif; font-size: 8.3px; font-weight: 700; white-space: pre;"
        x="244.597" y="237.726">What happened yesterday?</text>
      <text
        style="fill: rgb(255, 255, 255); font-family: Arial, sans-serif; font-size: 8.3px; font-weight: 700; white-space: pre;"
        x="246.262" y="347.064">Plan for today</text>
      <text
        style="fill: rgb(32, 30, 88); font-family: Arial, sans-serif; font-size: 8.3px; white-space: pre;"
        x="224.802" y="274.464">Fixed bug in payment processing module</text>
      <text
        style="fill: rgb(32, 30, 88); font-family: Arial, sans-serif; font-size: 8.3px; white-space: pre;"
        x="225.254" y="308.969">Research third-party API for integration</text>
      <text
        style="fill: rgb(32, 30, 88); font-family: Arial, sans-serif; font-size: 8.3px; white-space: pre;"
        x="227.697" y="384.394">Write unit tests for module Y</text>
      <text
        style="fill: rgb(32, 30, 88); font-family: Arial, sans-serif; font-size: 8.3px; white-space: pre;"
        x="228.709" y="421.439">Update documentation for API endpoints</text>
      <path fill="#CEDDE9"
        d="M 209.02 362.625 L 435.52 362.625 L 435.52 363.525 L 209.02 363.525 L 209.02 362.625 Z M 209.02 398.925 L 435.52 398.925 L 435.52 399.825 L 209.02 399.825 L 209.02 398.925 Z"></path>
    </g>
  </g>
</svg>