<svg xmlns="http://www.w3.org/2000/svg" viewBox="0 0 1486.2 1359.7" class="m-hero--shape">
  <g clip-path="url(#shape-mask)">
    <g opacity="0.5">
      <g transform="translate(0 400)" opacity="1">
        <g>
          <path
            fill="#6671D3"
            d="M225.8,548.3H7.2c-4,0-7.2-3.2-7.2-7.2V331c0-4,3.2-7.2,7.2-7.2h218.6c4,0,7.2,3.2,7.2,7.2v210.1 C233,545.1,229.7,548.3,225.8,548.3z"
          />
          <path
            fill="#A4ABED"
            d="M139.1,389.3c1.5-0.3,6.9-1.4,12,0c0.2,0,0.4,0.3,0.4,0.5v7.6c0,0.3-0.2,0.5-0.5,0.5h-0.6v17.5 c0,0,0,4.4,1.6,5.8c3.5,3.2,6.1,6.8,6.6,11.9c0.4,5.1,0.4,19.4,0.4,26.7s-0.1,39.8-0.2,42.8c-0.1,2.5-0.5,3.5-0.6,3.7   c-0.3,1.3-6,2.3-13,2.3s-12.6-1-12.9-2.3c-0.1-0.1-0.5-1.1-0.6-3.7c-0.1-3-0.3-35.5-0.2-42.8c0-7.3,0-21.6,0.4-26.7 s3.1-8.7,6.6-11.9c1.6-1.4,1.6-5.8,1.6-5.8V398h-0.6c-0.3,0-0.5-0.2-0.5-0.5v-7.6C138.7,389.5,138.9,389.3,139.1,389.3L139.1,389.3   z M81.9,389.3c1.5-0.3,6.9-1.4,12,0c0.2,0,0.4,0.3,0.4,0.5v7.6c0,0.3-0.2,0.5-0.5,0.5h-0.6v17.5c0,0,0,4.4,1.6,5.8   c3.5,3.2,6.1,6.8,6.6,11.9c0.4,5.1,0.4,19.4,0.4,26.7s-0.1,39.8-0.2,42.8c-0.1,2.5-0.5,3.5-0.6,3.7c-0.3,1.3-6,2.3-13,2.3   s-12.6-1-12.9-2.3c-0.1-0.1-0.5-1.1-0.6-3.7c-0.1-3-0.3-35.5-0.2-42.8c0-7.3,0-21.6,0.4-26.7s3.1-8.7,6.6-11.9   c1.6-1.4,1.6-5.8,1.6-5.8V398h-0.6c-0.3,0-0.5-0.2-0.5-0.5v-7.6C81.5,389.5,81.7,389.3,81.9,389.3L81.9,389.3z"
          />
          <path
            fill="#898EE5"
            d="M107.7,360c2.2-0.4,10.1-1.8,17.5,0c0.3,0.1,0.6,0.3,0.6,0.7v10c0,0.4-0.3,0.7-0.8,0.7h-1v23.1 c0,0,0,5.8,2.3,7.7c5.1,4.3,9,9,9.7,15.8s0.5,25.6,0.6,35.2c0,9.6-0.2,52.5-0.3,56.5c-0.1,3.3-0.7,4.6-0.9,4.9   c-0.5,1.7-8.9,3.1-19,3.1c-10.2,0-18.5-1.3-19-3.1c-0.1-0.2-0.8-1.4-0.9-4.9c-0.1-3.9-0.4-46.8-0.3-56.5c0-9.6,0-28.5,0.6-35.2 s4.6-11.5,9.7-15.8c2.4-1.9,2.3-7.7,2.3-7.7v-23.1h-1c-0.4,0-0.8-0.3-0.8-0.7v-10C107.1,360.4,107.4,360.1,107.7,360z"
          />
        </g>
        <g>
          <path
            fill="#6671D3"
            d="M225.8 866.8H7.2c-4 0-7.2-3.2-7.2-7.2V575.5c0-4 3.2-7.2 7.2-7.2h218.6c4 0 7.2 3.2 7.2 7.2v284.2c0 4-3.2 7.1-7.2 7.1z"
          />
          <path
            fill="#898EE5"
            d="M30.7 866.8V638.5c0-7.6 6.2-13.8 13.8-13.8h144c7.6 0 13.8 6.2 13.8 13.8v228.3H30.7z"
          />
          <path fill="#A4ABED"
            d="M189.3 866.8H43.7V671.1c0-1.7 1.3-3 3-3h139.7c1.7 0 3 1.3 3 3l-.1 195.7z" />
          <path
            fill="#727CDD"
            d="M106.5 650.8h20c.7 0 1.4.4 1.7 1.1.1-.2.2-.5.2-.8 0-1-.8-1.9-1.9-1.9h-20c-1 0-1.9.8-1.9 1.9 0 .3.1.6.2.8.3-.7.9-1.1 1.7-1.1z"
          />
          <path
            fill="#A4ABED"
            d="M106.5 653h20c.7 0 1.4-.4 1.7-1.1-.3-.6-.9-1.1-1.7-1.1h-20c-.7 0-1.4.4-1.7 1.1.3.6.9 1.1 1.7 1.1zm10-7.1c-1 0-1.9-.8-1.9-1.9 0-1 .8-1.9 1.9-1.9s1.9.8 1.9 1.9c0 1-.9 1.9-1.9 1.9z"
          />
          <path
            fill="#4258B2"
            d="M30.7 699.2c-1.8 0-3.3 0-3.3-3.3v-16.2c0-3 1.5-3.3 3.3-3.3v22.8zm0 27.4c-1.8 0-3.3 0-3.3-3.3v-16.2c0-3 1.5-3.3 3.3-3.3v22.8z"
          />
          <path
            fill="#727CD6"
            d="M84.7 680.8H56.6c-1 0-1.9-.8-1.9-1.9s.8-1.9 1.9-1.9h28.1c1 0 1.9.8 1.9 1.9-.1 1-.9 1.9-1.9 1.9zm91.3 0h-10.5c-1 0-1.9-.8-1.9-1.9s.8-1.9 1.9-1.9H176c1 0 1.9.8 1.9 1.9s-.8 1.9-1.9 1.9z"
          />
          <path
            fill="#727CD6"
            d="M175.1 813.2H57.8c-2.1 0-3.7-1.7-3.7-3.7v3c0 2 1.7 3.7 3.7 3.7h117.3c2 0 3.7-1.7 3.6-3.7v-3c.1 2-1.6 3.7-3.6 3.7z"
          />
          <path
            fill="#898EE5"
            d="M175.1 726.1H57.8c-2.1 0-3.7 1.7-3.7 3.7v79.8c0 2 1.7 3.7 3.7 3.7h117.3c2 0 3.7-1.7 3.6-3.8v-79.7c.1-2.1-1.6-3.7-3.6-3.7z"
          />
          <path
            fill="#727CD6"
            d="M97.6 763.7H69.3c-1.1 0-1.9-.9-1.9-1.9s.8-1.9 1.9-1.9h28.3c1.1 0 1.9.8 1.9 1.9s-.9 1.9-1.9 1.9z"
          />
          <path
            fill="#A4ABED"
            d="M122.2 744.3H69.8c-1.4 0-2.5-1.1-2.5-2.5 0-1.3 1.1-2.5 2.5-2.5h52.4c1.4 0 2.5 1.1 2.5 2.5s-1.1 2.5-2.5 2.5z"
          />
          <path
            fill="#6671D3"
            d="M163.5 744.3h-7.9c-1.4 0-2.5-1.1-2.5-2.5s1.1-2.5 2.5-2.5h7.9c1.4 0 2.5 1.1 2.5 2.5s-1.1 2.5-2.5 2.5z"
          />
          <path
            fill="#727CD6"
            d="M153.6 763.7h-45.7c-1.1 0-1.9-.9-1.9-1.9s.9-1.9 1.9-1.9h45.7c1.1 0 1.9.8 1.9 1.9s-.8 1.9-1.9 1.9zm-44.2 9.8H69.2c-1.1 0-1.9-.9-1.9-1.9s.8-1.9 1.9-1.9h40.2c1.1 0 1.9.8 1.9 1.9 0 1.1-.8 1.9-1.9 1.9zm54.2 30.5H69.1c-1.4 0-2.5-1.1-2.5-2.5v-13.7c0-1.4 1.1-2.5 2.5-2.5h94.5c1.4 0 2.5 1.1 2.5 2.5v13.8c0 1.3-1.1 2.4-2.5 2.4zm.8-30.5h-44.2c-1.1 0-1.9-.9-1.9-1.9s.9-1.9 1.9-1.9h44.2c1.1 0 1.9.8 1.9 1.9 0 1.1-.9 1.9-1.9 1.9z"
          />
          <path
            fill="#898EE5"
            d="M146.8 795.6h-61c-.6 0-1.1-.4-1.1-1 0-.5.4-1 1.1-1h61c.6 0 1.1.5 1.1 1 0 .6-.5 1-1.1 1z"
          />
        </g>
        <g>
          <path fill="#727CD6"
            d="M0 1152c0 4 3.2 7.2 7.2 7.2h218.6c4 0 7.2-3.2 7.2-7.2v-40.2H0v40.2z" />
          <path fill="#6671D3"
            d="M233 894.1c0-4-3.2-7.2-7.2-7.2H7.2c-4 0-7.2 3.2-7.2 7.2v218.8h233V894.1z" />
          <path
            fill="#A4ABED"
            d="M217.1 1149H15.4c-1.8 0-3.2-1.4-3.2-3.2v-19.6c0-1.8 1.4-3.2 3.2-3.2h201.7c1.8 0 3.2 1.4 3.2 3.2v19.6c0 1.7-1.5 3.2-3.2 3.2z"
          />
          <path
            fill="#898EE5"
            d="M61.9 1084c0 2.8 2.3 5.2 5.2 5.2h132.6c2.8 0 5.2-2.3 5.2-5.2v-33.5c0-2.8-2.3-5.2-5.2-5.2H79.3v-.1H56.6c-2 0-3 2.5-1.5 3.9l6.8 6.4c.1.1 0 28.5 0 28.5z"
          />
          <circle cx="32.2" cy="1050.9" r="12.4" fill="#A4ABED" />
          <path
            fill="#A4ABED"
            d="M193.3 1083h-21.1c-1.2 0-2.2-1-2.2-2.2s1-2.2 2.2-2.2h21.1c1.2 0 2.2 1 2.2 2.2-.1 1.2-1 2.2-2.2 2.2z"
          />
          <path
            fill="#727CD6"
            d="M111.2 1060.4H74.8c-1.2 0-2.2-1-2.2-2.2s1-2.2 2.2-2.2h36.4c1.2 0 2.2 1 2.2 2.2-.1 1.2-1 2.2-2.2 2.2zm29.2 11.7H74.8c-1.2 0-2.2-1-2.2-2.2s1-2.2 2.2-2.2h65.6c1.2 0 2.2 1 2.2 2.2-.1 1.2-1 2.2-2.2 2.2zm54.1-11.7h-69.4c-1.2 0-2.2-1-2.2-2.2s1-2.2 2.2-2.2h69.4c1.2 0 2.2 1 2.2 2.2-.1 1.2-1 2.2-2.2 2.2z"
          />
          <path
            fill="#6671D3"
            d="M91.2 1138.8H21.8c-1.2 0-2.2-1-2.2-2.2s1-2.2 2.2-2.2h69.4c1.2 0 2.2 1 2.2 2.2s-1 2.2-2.2 2.2z"
          />
          <path
            fill="#898EE5"
            d="M61.9 961.3c0 2.8 2.3 5.2 5.2 5.2h132.6c2.8 0 5.2-2.3 5.2-5.2v-33.5c0-2.8-2.3-5.2-5.2-5.2H79.3v-.1H56.6c-2 0-3 2.5-1.5 3.9l6.8 6.4c.1.2 0 28.5 0 28.5z"
          />
          <circle cx="32.2" cy="928.3" r="12.4" fill="#A4ABED" />
          <path
            fill="#A4ABED"
            d="M193.3 960.4h-21.1c-1.2 0-2.2-1-2.2-2.2s1-2.2 2.2-2.2h21.1c1.2 0 2.2 1 2.2 2.2-.1 1.3-1 2.2-2.2 2.2z"
          />
          <path
            fill="#727CD6"
            d="M111.2 937.7H74.8c-1.2 0-2.2-1-2.2-2.2s1-2.2 2.2-2.2h36.4c1.2 0 2.2 1 2.2 2.2-.1 1.3-1 2.2-2.2 2.2zm29.2 11.8H74.8c-1.2 0-2.2-1-2.2-2.2s1-2.2 2.2-2.2h65.6c1.2 0 2.2 1 2.2 2.2-.1 1.2-1 2.2-2.2 2.2zm54.1-11.8h-69.4c-1.2 0-2.2-1-2.2-2.2s1-2.2 2.2-2.2h69.4c1.2 0 2.2 1 2.2 2.2-.1 1.3-1 2.2-2.2 2.2z"
          />
          <path
            fill="#898EE5"
            d="M170.7 1017c0 2.8-2.3 5.2-5.2 5.2H32.9c-2.8 0-5.2-2.3-5.2-5.2v-22.2c0-2.8 2.3-5.2 5.2-5.2h120.4v-.1H176c2 0 3 2.5 1.5 3.9l-6.8 6.4v17.2z"
          />
          <circle cx="200.4" cy="995.3" r="12.4" fill="#A4ABED" />
          <path
            fill="#A4ABED"
            d="M138.2 1015.5h21.1c1.2 0 2.2-1 2.2-2.2s-1-2.2-2.2-2.2h-21.1c-1.2 0-2.2 1-2.2 2.2.1 1.2 1 2.2 2.2 2.2z"
          />
          <path
            fill="#727CD6"
            d="M97.3 1004.7h51.2c1.2 0 2.2-1 2.2-2.2s-1-2.2-2.2-2.2H97.3c-1.2 0-2.2 1-2.2 2.2.1 1.2 1 2.2 2.2 2.2zm-59.2 0h47.2c1.2 0 2.2-1 2.2-2.2s-1-2.2-2.2-2.2H38.1c-1.2 0-2.2 1-2.2 2.2.1 1.2 1.1 2.2 2.2 2.2z"
          />
          <path
            fill="#6671D3"
            d="M217.1 1149h-62.7v-26.2h62.7c1.8 0 3.2 1.4 3.2 3.2v19.6c0 1.9-1.5 3.4-3.2 3.4z"
          />
          <path
            fill="#898EE5"
            d="M200.1 1137.5h-25.5c-1.2 0-2.2-1-2.2-2.2s1-2.2 2.2-2.2h25.5c1.2 0 2.2 1 2.2 2.2-.1 1.3-1.1 2.2-2.2 2.2z"
          />
        </g>
        <animateTransform
          attributeName="transform"
          type="translate"
          from="0 400"
          to="0 0"
          fill="freeze"
          begin="0.2s"
          dur="2s"
          keySplines="0 0.69 0.19 1"
          keyTimes="0;1"
          calcMode="spline"
        />
        <animate attributeName="opacity" from="0" to="1" fill="freeze" begin="0s" dur="1.2s" />
      </g>
      <g transform="translate(0 360)" opacity="1">
        <g>
          <path fill="#6671D3"
            d="M251.1,206.3v168.3c0,4,3.2,7.2,7.2,7.2h218.6c4,0,7.2-3.2,7.2-7.2V206.3H251.1z" />
          <path
            fill="#727CD6"
            d="M484.1,169.1c0-4-3.2-7.2-7.2-7.2H258.3c-4,0-7.2,3.2-7.2,7.2v38.5h233L484.1,169.1L484.1,169.1z"
          />
          <path
            fill="#D9DEF9"
            d="M400,233.3H269.7c-1.6,0-2.9-1.3-2.9-2.9s1.3-2.9,2.9-2.9H400c1.6,0,2.9,1.3,2.9,2.9S401.6,233.3,400,233.3 L400,233.3z M462.3,233.3h-46.6c-1.6,0-2.9-1.3-2.9-2.9s1.3-2.9,2.9-2.9h46.6c1.6,0,2.9,1.3,2.9,2.9S463.9,233.3,462.3,233.3 L462.3,233.3z"
          />
          <path
            fill="#A4ABED"
            d="M431.8,251.2h-99.6c-1.6,0-2.9-1.3-2.9-2.9s1.3-2.9,2.9-2.9h99.6c1.6,0,2.9,1.3,2.9,2.9 C434.7,249.8,433.4,251.2,431.8,251.2z"
          />
          <path
            fill="#D9DEF9"
            d="M316.2,251.2h-46.6c-1.6,0-2.9-1.3-2.9-2.9s1.3-2.9,2.9-2.9h46.6c1.6,0,2.9,1.3,2.9,2.9 C319.1,249.8,317.8,251.2,316.2,251.2z"
          />
          <path
            fill="#A4ABED"
            d="M362.4,269.4h-92.8c-1.6,0-2.9-1.3-2.9-2.9s1.3-2.9,2.9-2.9h92.8c1.6,0,2.9,1.3,2.9,2.9 C365.4,268,364.1,269.4,362.4,269.4z"
          />
          <path
            fill="#A4ABED"
            d="M348.6,318.4h-78.9c-1.6,0-2.9-1.3-2.9-2.9s1.3-2.9,2.9-2.9h78.9c1.6,0,2.9,1.3,2.9,2.9 C351.5,317.2,350.2,318.4,348.6,318.4z"
          />
          <path
            fill="#D9DEF9"
            d="M462.3,318.4h-97.9c-1.6,0-2.9-1.3-2.9-2.9s1.3-2.9,2.9-2.9h97.9c1.6,0,2.9,1.3,2.9,2.9 C465.2,317.2,463.9,318.4,462.3,318.4z"
          />
          <path
            fill="#A4ABED"
            d="M446.4,336.3h-92.9c-1.6,0-2.9-1.3-2.9-2.9s1.3-2.9,2.9-2.9h93c1.6,0,2.9,1.3,2.9,2.9 C449.3,335,448,336.3,446.4,336.3z M337.6,336.3h-67.9c-1.6,0-2.9-1.3-2.9-2.9s1.3-2.9,2.9-2.9h67.9c1.6,0,2.9,1.3,2.9,2.9 S339.1,336.3,337.6,336.3z"
          />
          <path
            fill="#D9DEF9"
            d="M308.6,354.5h-38.9c-1.6,0-2.9-1.3-2.9-2.9s1.3-2.9,2.9-2.9h38.9c1.6,0,2.9,1.3,2.9,2.9 C311.5,353.1,310.2,354.5,308.6,354.5z"
          />
          <path
            fill="#D9DEF9"
            d="M315.7,287.2h-46.6c-1.6,0-2.9-1.3-2.9-2.9s1.3-2.9,2.9-2.9h46.6c1.6,0,2.9,1.3,2.9,2.9 S317.3,287.2,315.7,287.2L315.7,287.2z"
          />
          <path
            fill="#A4ABED"
            d="M348.1,318.4h-78.9c-1.6,0-2.9-1.3-2.9-2.9s1.3-2.9,2.9-2.9h78.9c1.6,0,2.9,1.3,2.9,2.9 C351,317.2,349.7,318.4,348.1,318.4z"
          />
          <path
            fill="#D9DEF9"
            d="M461.8,318.4h-97.9c-1.6,0-2.9-1.3-2.9-2.9s1.3-2.9,2.9-2.9h97.9c1.6,0,2.9,1.3,2.9,2.9 C464.7,317.2,463.4,318.4,461.8,318.4z"
          />
          <path
            fill="#A4ABED"
            d="M445.9,336.3H353c-1.6,0-2.9-1.3-2.9-2.9s1.3-2.9,2.9-2.9h93c1.6,0,2.9,1.3,2.9,2.9 C448.8,335,447.5,336.3,445.9,336.3z"
          />
          <path
            fill="#A4ABED"
            d="M337.1,336.3h-67.9c-1.6,0-2.9-1.3-2.9-2.9s1.3-2.9,2.9-2.9h67.9c1.6,0,2.9,1.3,2.9,2.9 S338.6,336.3,337.1,336.3z"
          />
          <path
            fill="#D9DEF9"
            d="M308.1,354.5h-38.9c-1.6,0-2.9-1.3-2.9-2.9s1.3-2.9,2.9-2.9h38.9c1.6,0,2.9,1.3,2.9,2.9 C311,353.1,309.7,354.5,308.1,354.5z"
          />
          <path
            fill="#A4ABED"
            d="M276.4,191.8h-6c-2.1,0-3.7-1.7-3.7-3.7v-6c0-2.1,1.7-3.7,3.7-3.7h6c2.1,0,3.7,1.7,3.7,3.7v6 C280.1,190.1,278.4,191.8,276.4,191.8z"
          />
          <path
            fill="#A4ABED"
            d="M371.9,186.6h-77.7c-1,0-1.8-0.8-1.8-1.8s0.8-1.8,1.8-1.8h77.6c1,0,1.8,0.8,1.8,1.8 C373.7,185.8,372.9,186.6,371.9,186.6z"
          />
          <path
            fill="#A4ABED"
            d="M379.8,354.5h-55.9c-1.6,0-2.9-1.3-2.9-2.9s1.3-2.9,2.9-2.9h55.9c1.6,0,2.9,1.3,2.9,2.9 C382.7,353.1,381.4,354.5,379.8,354.5z"
          />
          <path
            fill="#D9DEF9"
            d="M443.7,269.4h-65.4c-1.6,0-2.9-1.3-2.9-2.9s1.3-2.9,2.9-2.9h65.4c1.6,0,2.9,1.3,2.9,2.9 C446.6,268,445.3,269.4,443.7,269.4z M316.2,287.2h-46.6c-1.6,0-2.9-1.3-2.9-2.9s1.3-2.9,2.9-2.9h46.6c1.6,0,2.9,1.3,2.9,2.9 S317.8,287.2,316.2,287.2L316.2,287.2z"
          />
        </g>
        <g>
          <path
            fill="#6671D3"
            d="M476.9 1359.7H258.4c-4 0-7.3-3.3-7.3-7.3v-340.3c0-4 3.3-7.3 7.3-7.3h218.4c4 0 7.3 3.3 7.3 7.3v340.4c0 4-3.2 7.2-7.2 7.2z"
          />
          <path
            fill="#898EE5"
            d="M462 1133.8H273.2c-1.4 0-2.6-1.1-2.6-2.6v-94.3c0-1.4 1.1-2.6 2.6-2.6H462c1.4 0 2.6 1.1 2.6 2.6v94.3c0 1.5-1.2 2.6-2.6 2.6z"
          />
          <path
            fill="#757ED8"
            d="M464.6 1092.4v38.8c0 1.4-1.1 2.6-2.6 2.6H273.2c-1.4 0-2.6-1.1-2.6-2.6v-38.8h194z"
          />
          <path
            fill="#A4ABED"
            d="M329.6 1107.7c-1.2-1.2-3-2-4.9-2s-3.6.8-4.9 2c-.1.1-.3.3-.4.5.6 1.3 1 2.8 1 4.4s-.4 3.1-1 4.4c.1.1.3.3.4.5 1.2 1.2 3 2 4.9 2s3.6-.8 4.9-2c1.2-1.2 2-3 2-4.9 0-2-.7-3.7-2-4.9zm-13.8.4c-.1-.1-.3-.3-.4-.5-1.2-1.2-3-2-4.9-2s-3.6.8-4.9 2c-.1.1-.3.3-.4.5.6 1.3 1 2.8 1 4.4s-.4 3.1-1 4.4c.1.1.3.3.4.5 1.2 1.2 3 2 4.9 2s3.6-.8 4.9-2c.1-.1.3-.3.4-.5.4-.4.7-1 .9-1.5.4-.9.6-1.8.6-2.9 0-1-.2-2-.6-2.9-.1-.5-.5-1-.9-1.5zm-13.2 1.5c-.2-.5-.5-1-.9-1.5-.1-.1-.3-.3-.4-.5-1.2-1.2-3-2-4.9-2s-3.6.8-4.9 2c-1.2 1.2-2 3-2 4.9s.8 3.6 2 4.9c1.2 1.2 3 2 4.9 2s3.6-.8 4.9-2c.1-.1.3-.3.4-.5.4-.4.7-1 .9-1.5.4-.9.6-1.9.6-2.9s-.2-2-.6-2.9z"
          />
          <path
            fill="#D9DEF9"
            d="M334.9 1076.8h-43.1c-1.7 0-3.1-1.4-3.1-3.1s1.4-3.1 3.1-3.1h43.1c1.7 0 3.1 1.4 3.1 3.1s-1.4 3.1-3.1 3.1z"
          />
          <path
            fill="#A4ABED"
            d="M358.9 1114.4h-17.7c-1 0-1.9-.8-1.9-1.9 0-1 .8-1.9 1.9-1.9h17.7c1 0 1.9.8 1.9 1.9s-.9 1.9-1.9 1.9zm38.6 0h-29.6c-1 0-1.9-.8-1.9-1.9 0-1 .8-1.9 1.9-1.9h29.6c1 0 1.9.8 1.9 1.9s-.8 1.9-1.9 1.9z"
          />
          <path
            fill="#D9DEF9"
            d="M390.7 1076.8h-43.1c-1.7 0-3.1-1.4-3.1-3.1s1.4-3.1 3.1-3.1h43.1c1.7 0 3.1 1.4 3.1 3.1s-1.4 3.1-3.1 3.1zm-33.3-12.1h-65.6c-1.7 0-3.1-1.4-3.1-3.1s1.4-3.1 3.1-3.1h65.6c1.7 0 3.1 1.4 3.1 3.1s-1.3 3.1-3.1 3.1zm86.8 0h-72.4c-1.7 0-3.1-1.4-3.1-3.1s1.4-3.1 3.1-3.1h72.4c1.7 0 3.1 1.4 3.1 3.1s-1.4 3.1-3.1 3.1z"
          />
          <path
            fill="#898EE5"
            d="M462 1338.1H273.2c-1.4 0-2.6-1.1-2.6-2.6v-94.3c0-1.4 1.1-2.6 2.6-2.6H462c1.4 0 2.6 1.1 2.6 2.6v94.3c0 1.4-1.2 2.6-2.6 2.6z"
          />
          <path
            fill="#D9DEF9"
            d="M334.9 1281.1h-43.1c-1.7 0-3.1-1.4-3.1-3.1s1.4-3.1 3.1-3.1h43.1c1.7 0 3.1 1.4 3.1 3.1s-1.4 3.1-3.1 3.1zm52.3-12.1h-95.4c-1.7 0-3.1-1.4-3.1-3.1s1.4-3.1 3.1-3.1h95.4c1.7 0 3.1 1.4 3.1 3.1s-1.4 3.1-3.1 3.1zm57 0h-42.6c-1.7 0-3.1-1.4-3.1-3.1s1.4-3.1 3.1-3.1h42.6c1.7 0 3.1 1.4 3.1 3.1s-1.4 3.1-3.1 3.1z"
          />
          <path
            fill="#898EE5"
            d="M462 1223.4H273.2c-1.4 0-2.6-1.1-2.6-2.6v-69.5c0-1.4 1.1-2.6 2.6-2.6H462c1.4 0 2.6 1.1 2.6 2.6v69.5c0 1.4-1.2 2.6-2.6 2.6z"
          />
          <path
            fill="#D9DEF9"
            d="M322.8 1172.5h-31c-1.7 0-3.1-1.4-3.1-3.1s1.4-3.1 3.1-3.1h31c1.7 0 3.1 1.4 3.1 3.1s-1.4 3.1-3.1 3.1zm92.3.2h-80.2c-1.7 0-3.1-1.4-3.1-3.1v-.2c0-1.7 1.4-3.1 3.1-3.1h80.2c1.7 0 3.1 1.4 3.1 3.1v.2c.1 1.7-1.3 3.1-3.1 3.1z"
          />
          <path
            fill="#757ED8"
            d="M464.6 1185.1v35.8c0 1.4-1.1 2.6-2.6 2.6H273.2c-1.4 0-2.6-1.1-2.6-2.6v-35.8h194zm0 110.7v39.5c0 1.4-1.1 2.6-2.6 2.6H273.2c-1.4 0-2.6-1.1-2.6-2.6v-39.5h194z"
          />
          <path
            fill="#A4ABED"
            d="M315.8 1198.8c-.1-.1-.3-.3-.4-.5-1.2-1.2-3-2-4.9-2s-3.6.8-4.9 2c-.1.1-.3.3-.4.5.6 1.3 1 2.8 1 4.4s-.4 3.1-1 4.4c.1.1.3.3.4.5 1.2 1.2 3 2 4.9 2s3.6-.8 4.9-2c.1-.1.3-.3.4-.5.4-.4.7-1 .9-1.5.4-.9.6-1.8.6-2.9 0-1-.2-2-.6-2.9-.1-.5-.5-1-.9-1.5zm-13.2 1.6c-.2-.5-.5-1-.9-1.5-.1-.1-.3-.3-.4-.5-1.2-1.2-3-2-4.9-2s-3.6.8-4.9 2c-1.2 1.2-2 3-2 4.9s.8 3.6 2 4.9c1.2 1.2 3 2 4.9 2s3.6-.8 4.9-2c.1-.1.3-.3.4-.5.4-.4.7-1 .9-1.5.4-.9.6-1.9.6-2.9.1-1.1-.2-2.1-.6-2.9zm50 4.8h-27.5c-1 0-1.9-.8-1.9-1.9 0-1 .8-1.9 1.9-1.9h27.5c1 0 1.9.8 1.9 1.9 0 1-.9 1.9-1.9 1.9zm-23 106.7c-1.2-1.2-3-2-4.9-2s-3.6.8-4.9 2c-.1.1-.3.3-.4.5.6 1.3 1 2.8 1 4.4s-.4 3.1-1 4.4c.1.1.3.3.4.5 1.2 1.2 3 2 4.9 2s3.6-.8 4.9-2c1.2-1.2 2-3 2-4.9s-.7-3.7-2-4.9zm14.4 0c-1.2-1.2-3-2-4.9-2s-3.6.8-4.9 2c-.1.1-.3.3-.4.5.6 1.3 1 2.8 1 4.4s-.4 3.1-1 4.4c.1.1.3.3.4.5 1.2 1.2 3 2 4.9 2s3.6-.8 4.9-2c1.2-1.2 2-3 2-4.9s-.8-3.7-2-4.9zm-28.2.4c-.1-.1-.3-.3-.4-.5-1.2-1.2-3-2-4.9-2s-3.6.8-4.9 2c-.1.1-.3.3-.4.5.6 1.3 1 2.8 1 4.4s-.4 3.1-1 4.4c.1.1.3.3.4.5 1.2 1.2 3 2 4.9 2s3.6-.8 4.9-2c.1-.1.3-.3.4-.5.4-.4.7-1 .9-1.5.4-.9.6-1.8.6-2.9 0-1-.2-2-.6-2.9-.1-.5-.5-1-.9-1.5zm-13.2 1.6c-.2-.5-.5-1-.9-1.5-.1-.1-.3-.3-.4-.5-1.2-1.2-3-2-4.9-2s-3.6.8-4.9 2c-1.2 1.2-2 3-2 4.9s.8 3.6 2 4.9c1.2 1.2 3 2 4.9 2s3.6-.8 4.9-2c.1-.1.3-.3.4-.5.4-.4.7-1 .9-1.5.4-.9.6-1.9.6-2.9.1-1-.2-2-.6-2.9zm70.6 4.8h-17.7c-1 0-1.9-.8-1.9-1.9 0-1 .8-1.9 1.9-1.9h17.7c1 0 1.9.8 1.9 1.9 0 1-.8 1.9-1.9 1.9zm38.7 0h-29.6c-1 0-1.9-.8-1.9-1.9 0-1 .8-1.9 1.9-1.9h29.6c1 0 1.9.8 1.9 1.9 0 1-.8 1.9-1.9 1.9z"
          />
        </g>
        <g>
          <path
            fill="#6671D3"
            d="M478.4 984.8H256.8c-3.1 0-5.7-2.6-5.7-5.7V725.8c0-3.1 2.6-5.7 5.7-5.7h221.6c3.1 0 5.7 2.6 5.7 5.7v253.3c0 3.2-2.5 5.7-5.7 5.7z"
          />
          <path
            fill="#A4ABED"
            d="M381 905.4h-65.4c-1.7 0-3.1-1.4-3.1-3.1 0-1.7 1.4-3.1 3.1-3.1H381c1.7 0 3.1 1.4 3.1 3.1 0 1.7-1.4 3.1-3.1 3.1z"
          />
          <path
            fill="#D9DEF9"
            d="M300.9 899.4c-.2-.6-.6-1.1-1-1.5-.1-.2-.3-.3-.4-.5-1.3-1.3-3-2-4.9-2s-3.6.8-4.9 2c-1.3 1.3-2 3-2 4.9s.8 3.6 2 4.9c1.3 1.3 3 2 4.9 2s3.6-.8 4.9-2c.2-.2.3-.3.4-.5.4-.5.7-1 1-1.5.4-.9.6-1.9.6-2.9s-.2-2-.6-2.9z"
          />
          <path
            fill="#A4ABED"
            d="M395.9 928.2h-80.2c-1.7 0-3.1-1.4-3.1-3.1 0-1.7 1.4-3.1 3.1-3.1h80.2c1.7 0 3.1 1.4 3.1 3.1 0 1.7-1.4 3.1-3.1 3.1zm53.8 0h-40.6c-1.7 0-3.1-1.4-3.1-3.1 0-1.7 1.4-3.1 3.1-3.1h40.6c1.7 0 3.1 1.4 3.1 3.1.1 1.7-1.3 3.1-3.1 3.1z"
          />
          <path
            fill="#D9DEF9"
            d="M300.9 922.2c-.2-.6-.6-1.1-1-1.5-.1-.2-.3-.3-.4-.5-1.3-1.3-3-2-4.9-2s-3.6.8-4.9 2c-1.3 1.3-2 3-2 4.9s.8 3.6 2 4.9c1.3 1.3 3 2 4.9 2s3.6-.8 4.9-2c.2-.2.3-.3.4-.5.4-.5.7-1 1-1.5.4-.9.6-1.9.6-2.9s-.2-2-.6-2.9z"
          />
          <path
            fill="#A4ABED"
            d="M351.3 950.3h-35.6c-1.7 0-3.1-1.4-3.1-3.1 0-1.7 1.4-3.1 3.1-3.1h35.6c1.7 0 3.1 1.4 3.1 3.1 0 1.6-1.4 3.1-3.1 3.1zm73.7 0h-60.5c-1.7 0-3.1-1.4-3.1-3.1 0-1.7 1.4-3.1 3.1-3.1H425c1.7 0 3.1 1.4 3.1 3.1 0 1.6-1.4 3.1-3.1 3.1z"
          />
          <path
            fill="#D9DEF9"
            d="M300.9 944.2c-.2-.6-.6-1.1-1-1.5-.1-.2-.3-.3-.4-.5-1.3-1.3-3-2-4.9-2s-3.6.8-4.9 2c-1.3 1.3-2 3-2 4.9s.8 3.6 2 4.9c1.3 1.3 3 2 4.9 2s3.6-.8 4.9-2c.2-.2.3-.3.4-.5.4-.5.7-1 1-1.5.4-.9.6-1.9.6-2.9s-.2-2-.6-2.9z"
          />
          <path
            fill="#898EE5"
            d="M420.1 833.5c0-13.2-10.7-23.8-23.8-23.8-1.7 0-3.3.2-4.9.5-.3-18.8-15.7-34-34.6-34-16.7 0-30.7 11.9-33.9 27.7-14 .9-25 12.5-25 26.7 0 14.7 11.8 26.6 26.4 26.7H399c11.9-1.3 21.1-11.5 21.1-23.8z"
          />
          <path
            fill="#A4ABED"
            d="M397.9 831.2c4.5 0 7.9-1.5 10.4-4.5 2.4-3 3.9-7.1 4.5-12.3-4.4 3-9.2 4.4-14.3 4.4-6.8 0-12.4-2.2-16.9-6.7-4.5-4.4-6.8-10.3-6.8-17.6s2.4-13.2 7.3-17.6c4.9-4.4 11-6.7 18.4-6.7 5.1 0 9.5 1 13.3 2.9 3.8 2 6.7 4.7 8.8 8.2 4.1 6.8 6.1 15.4 6.1 25.6 0 6.6-.8 12.4-2.4 17.4s-3.8 8.9-6.6 11.8c-5.7 5.8-12.5 8.7-20.6 8.7-3.4 0-6.6-.5-9.7-1.5s-5.4-2-7-3-3.4-2.3-5.5-3.9L385 825c.5.4 1.1.9 1.9 1.6.8.7 2.3 1.5 4.6 2.6 2.2 1.5 4.4 2 6.4 2zm2.2-26c3.2 0 5.9-.9 8-2.8 2.1-1.9 3.2-4.3 3.2-7.3s-1-5.7-3.1-7.9-4.7-3.3-7.8-3.3c-3.1 0-5.6 1-7.6 2.9-2 2-2.9 4.5-2.9 7.5s.9 5.6 2.7 7.7c1.8 2.1 4.3 3.2 7.5 3.2z"
          />
          <path
            fill="#A4ABED"
            d="M425 767.8c1.2-1.2 2.6-1.8 4.3-1.8s3.1.6 4.3 1.8c1.2 1.2 1.8 2.6 1.8 4.3s-.6 3.1-1.8 4.2c-1.2 1.2-2.6 1.7-4.3 1.7s-3.1-.6-4.3-1.7c-1.2-1.2-1.8-2.6-1.8-4.2s.6-3.2 1.8-4.3zm.3 4.2c0 1.1.4 2 1.2 2.8.8.8 1.7 1.2 2.8 1.2s2-.4 2.8-1.2 1.2-1.7 1.2-2.8-.4-2-1.2-2.8c-.8-.8-1.7-1.2-2.8-1.2s-2 .4-2.8 1.2c-.9.8-1.2 1.7-1.2 2.8z"
          />
        </g>
        <g>
          <path
            fill="#6671D3"
            d="M477.8 700.3H257.5c-3.5 0-6.4-2.8-6.4-6.4V408.1c0-3.5 2.8-6.4 6.4-6.4h220.3c3.5 0 6.4 2.8 6.4 6.4v285.8c-.1 3.5-2.9 6.4-6.4 6.4z"
          />
          <path
            fill="#727CD6"
            d="M454.5 677.2H280.8c-2.6 0-4.8-2.1-4.8-4.8V533.7c0-2.6 2.1-4.8 4.8-4.8h173.7c2.6 0 4.8 2.1 4.8 4.8v138.7c0 2.7-2.1 4.8-4.8 4.8z"
          />
          <path
            fill="#898EE5"
            d="M454.5 581.5H280.8c-2.6 0-4.8-2.1-4.8-4.8v-51c0-2.6 2.1-4.8 4.8-4.8h173.7c2.6 0 4.8 2.1 4.8 4.8v51c0 2.7-2.1 4.8-4.8 4.8z"
          />
          <path
            fill="#D9DEF9"
            d="M435.9 662.7H299.3c-6 0-10.8-4.8-10.8-10.8 0-6 4.8-10.8 10.8-10.8H436c6 0 10.8 4.8 10.8 10.8-.1 6-4.9 10.8-10.9 10.8z"
          />
          <path
            fill="#A4ABED"
            d="M402.6 654.2h-69.9c-.9 0-1.6-.7-1.6-1.6 0-.9.7-1.6 1.6-1.6h69.9c.9 0 1.6.7 1.6 1.6-.1.9-.8 1.6-1.6 1.6z"
          />
          <path
            fill="#898EE5"
            d="M391 603.1h-91c-1.6 0-2.9-1.3-2.9-2.9 0-1.6 1.3-2.9 2.9-2.9h91c1.6 0 2.9 1.3 2.9 2.9 0 1.6-1.3 2.9-2.9 2.9z"
          />
          <path
            fill="#A4ABED"
            d="M435.3 603.1H406c-1.6 0-2.9-1.3-2.9-2.9 0-1.6 1.3-2.9 2.9-2.9h29.3c1.6 0 2.9 1.3 2.9 2.9 0 1.6-1.3 2.9-2.9 2.9z"
          />
          <path
            fill="#898EE5"
            d="M413.6 621h-67.2c-1.6 0-2.9-1.3-2.9-2.9 0-1.6 1.3-2.9 2.9-2.9h67.2c1.6 0 2.9 1.3 2.9 2.9 0 1.6-1.3 2.9-2.9 2.9z"
          />
          <path
            fill="#A4ABED"
            d="M331.4 621H300c-1.6 0-2.9-1.3-2.9-2.9 0-1.6 1.3-2.9 2.9-2.9h31.4c1.6 0 2.9 1.3 2.9 2.9 0 1.6-1.3 2.9-2.9 2.9z"
          />
          <circle cx="367.6" cy="448.8" r="25.5" fill="#898EE5" />
          <circle cx="383.6" cy="429" r="6.7" fill="#AEB7ED" />
          <path
            fill="#D9DEF9"
            d="M398.4 491.4h-61.5c-2.2 0-3.9-1.8-3.9-3.9 0-2.2 1.8-3.9 3.9-3.9h61.5c2.2 0 3.9 1.8 3.9 3.9 0 2.1-1.8 3.9-3.9 3.9z"
          />
          <path
            fill="#A4ABED"
            d="M383.5 501.9h-31.8c-1.4 0-2.5-1.1-2.5-2.5s1.1-2.5 2.5-2.5h31.8c1.4 0 2.5 1.1 2.5 2.5s-1.1 2.5-2.5 2.5z"
          />
          <path
            fill="#6671D3"
            d="M328.4 560.2h-29.5c-2.2 0-3.9-1.8-3.9-3.9 0-2.2 1.8-3.9 3.9-3.9h29.5c2.2 0 3.9 1.8 3.9 3.9 0 2.1-1.8 3.9-3.9 3.9z"
          />
          <path
            fill="#A4ABED"
            d="M323.7 545h-20.1c-.8 0-1.4-.6-1.4-1.4 0-.8.6-1.4 1.4-1.4h20.1c.8 0 1.4.6 1.4 1.4-.1.8-.7 1.4-1.4 1.4z"
          />
          <path
            fill="#6671D3"
            d="M382.4 560.2h-29.5c-2.2 0-3.9-1.8-3.9-3.9 0-2.2 1.8-3.9 3.9-3.9h29.5c2.2 0 3.9 1.8 3.9 3.9 0 2.1-1.7 3.9-3.9 3.9z"
          />
          <path
            fill="#A4ABED"
            d="M377.7 545h-20.1c-.8 0-1.4-.6-1.4-1.4 0-.8.6-1.4 1.4-1.4h20.1c.8 0 1.4.6 1.4 1.4 0 .8-.7 1.4-1.4 1.4z"
          />
          <path
            fill="#6671D3"
            d="M436.4 560.2h-29.5c-2.2 0-3.9-1.8-3.9-3.9 0-2.2 1.8-3.9 3.9-3.9h29.5c2.2 0 3.9 1.8 3.9 3.9.1 2.1-1.7 3.9-3.9 3.9z"
          />
          <path
            fill="#A4ABED"
            d="M431.7 545h-20.1c-.8 0-1.4-.6-1.4-1.4 0-.8.6-1.4 1.4-1.4h20.1c.8 0 1.4.6 1.4 1.4 0 .8-.6 1.4-1.4 1.4z"
          />
        </g>
        <animateTransform
          attributeName="transform"
          type="translate"
          from="0 360"
          to="0 0"
          fill="freeze"
          begin="0.2s"
          dur="1.96s"
          keySplines="0 0.69 0.19 1"
          keyTimes="0;1"
          calcMode="spline"
        />
        <animate attributeName="opacity" from="0" to="1" fill="freeze" begin="0s" dur="1.2s" />
      </g>
      <g transform="translate(0 290)" opacity="1">
        <g>
          <path
            fill="#6671D3"
            d="M501.1,254.5c0,4,3.2,7.2,7.2,7.2h218.6c4,0,7.2-3.2,7.2-7.2v-65.7h-233L501.1,254.5L501.1,254.5z"
          />
          <path
            fill="#727CD6"
            d="M734.1,151.9c0-4-3.2-7.2-7.2-7.2H508.3c-4,0-7.2,3.2-7.2,7.2v38.5h233V151.9L734.1,151.9z"
          />
          <path
            fill="#A4ABED"
            d="M621.9,169.4h-77.6c-1,0-1.8-0.8-1.8-1.8s0.8-1.8,1.8-1.8h77.6c1,0,1.8,0.8,1.8,1.8 S622.9,169.4,621.9,169.4z M526.4,174.6h-6c-2.1,0-3.7-1.7-3.7-3.7v-6c0-2.1,1.7-3.7,3.7-3.7h6c2.1,0,3.7,1.7,3.7,3.7v6 C530.1,172.9,528.5,174.6,526.4,174.6z M560.6,205.8h37.9v38.8h-37.9V205.8z"
          />
          <path fill="#727CD6" d="M598.6,205.8h37.9v38.8h-37.9V205.8z" />
          <path
            fill="#AEB7ED"
            d="M525.2,205.8c-1.4,0-2.5,1.1-2.5,2.5v33.8c0,1.4,1.1,2.5,2.5,2.5h35.4v-38.8H525.2L525.2,205.8z"
          />
          <path fill="#8592E0" d="M636.5,205.8h37.9v38.8h-37.9V205.8z" />
          <path
            fill="#A4ABED"
            d="M709.8,205.8h-35.4v38.8h35.4c1.4,0,2.5-1.1,2.5-2.5v-33.8C712.3,206.9,711.2,205.8,709.8,205.8z"
          />
        </g>
        <g>
          <path
            fill="#6671D3"
            d="M726.9 599.8H508.3c-4 0-7.2-3.2-7.2-7.2V288.4c0-4 3.2-7.2 7.2-7.2h218.6c4 0 7.2 3.2 7.2 7.2v304.1c0 4.1-3.2 7.3-7.2 7.3z"
          />
          <path
            fill="#898EE5"
            d="M645.9 389.1c-.4-.6-.6-1.4-.6-2.2 0-2.1 1.7-3.9 3.8-4h4.4c2.1-.1 3.8-1.9 3.8-4 0-2.2-1.8-4.1-4.1-4.1h-39.9c-24.2 0-35.9 16.2-39.5 22.5-.8 1.3-.3 3 .9 3.9l16.3 10.9c1.3.9 3.2.5 4.1-.8 2.4-3.6 7.8-9.8 15.6-9.8 6 0 12.4 3.4 12.4 11.5 0 16.7-50 24.2-50 66.9 0 3.2.3 6.4.9 10 .2 1.4 1.4 2.5 2.9 2.5h82.2c2.2 0 4.1-1.8 4.1-4.1 0-2.2-1.8-4.1-4.1-4.1h-33.5c-2.2 0-3.9-1.8-3.9-4.1 0-2.2 1.8-4 3.9-4.1h20.5c2.2 0 4.1-1.8 4.1-4.1 0-2.2-1.8-4.1-4.1-4.1h-36.7c-2.4 0-3.8-2.7-2.4-4.6 8.6-12.1 45.6-21.1 45.6-53.2 0-8.4-2.4-15.2-6.3-20.6l-.4-.3z"
          />
          <path
            fill="#A4ABED"
            d="M679.1 399.1h-36.3c-2.2 0-4.1-1.8-4.1-4.1 0-2.2 1.8-4.1 4.1-4.1h36.3c2.2 0 4.1 1.8 4.1 4.1s-1.8 4.1-4.1 4.1zm-51.1 0h-12.3c-2.2 0-4.1-1.8-4.1-4.1 0-2.2 1.8-4.1 4.1-4.1H628c2.2 0 4.1 1.8 4.1 4.1-.1 2.3-1.9 4.1-4.1 4.1zm10.6 29.6h-27.3c-2.2 0-4.1-1.8-4.1-4.1 0-2.2 1.8-4.1 4.1-4.1h27.3c2.2 0 4.1 1.8 4.1 4.1-.1 2.3-1.9 4.1-4.1 4.1zm28.9 23h-47.6c-2.2 0-4.1-1.8-4.1-4.1s1.8-4.1 4.1-4.1h47.6c2.2 0 4.1 1.8 4.1 4.1-.1 2.3-1.9 4.1-4.1 4.1z"
          />
        </g>
        <g>
          <path
            fill="#6671D3"
            d="M726.7 844.4H508.1c-4 0-7.2-3.2-7.2-7.2V627.1c0-4 3.2-7.2 7.2-7.2h218.6c4 0 7.2 3.2 7.2 7.2v210.1c0 4-3.2 7.2-7.2 7.2z"
          />
          <circle cx="612" cy="729.2" r="69.8" fill="#898EE5" />
          <circle cx="657.1" cy="769.4" r="35.5" fill="#A4ABED" />
          <path
            fill="#D9DEF9"
            d="M628.7 679.7h-84.3c-1.4 0-2.5-1.1-2.5-2.5 0-1.3 1.1-2.5 2.5-2.5h84.3c1.4 0 2.5 1.1 2.5 2.5s-1.1 2.5-2.5 2.5zm-38.9 14.1h-45.4c-1.4 0-2.5-1.1-2.5-2.5 0-1.3 1.1-2.5 2.5-2.5h45.4c1.4 0 2.5 1.1 2.5 2.5 0 1.3-1.2 2.5-2.5 2.5z"
          />
        </g>
        <g>
          <path
            fill="#6671D3"
            d="M726.4 1202.6H508.6c-4.2 0-7.6-3.4-7.6-7.6V872.5c0-4.2 3.4-7.6 7.6-7.6h217.8c4.2 0 7.6 3.4 7.6 7.6v322.4c0 4.3-3.4 7.7-7.6 7.7z"
          />
          <path fill="#898EE5" d="M516 973.5h203V1088H516z" />
          <path
            fill="#757ED8"
            d="M625.8 1073.2H541c-2.9 0-5.2-2.3-5.2-5.2v-76.5c0-2.9 2.3-5.2 5.2-5.2h84.8c2.9 0 5.2 2.3 5.2 5.2v76.5c0 2.9-2.3 5.2-5.2 5.2z"
          />
          <path
            fill="#D9DEF9"
            d="M644.3 949.4h-53.5c-2.1 0-3.9-1.7-3.9-3.9 0-2.1 1.7-3.9 3.9-3.9h53.5c2.1 0 3.9 1.7 3.9 3.9s-1.7 3.9-3.9 3.9z"
          />
          <path
            fill="#898EE5"
            d="M640.3 923.5h-46.4c-1.2 0-2.1-.9-2.1-2.1 0-1.2.9-2.1 2.1-2.1h46.4c1.2 0 2.1.9 2.1 2.1 0 1.1-.9 2.1-2.1 2.1z"
          />
          <path
            fill="#898EE5"
            d="M673.4 913.2H566.1c-1.2 0-2.1-.9-2.1-2.1 0-1.2.9-2.1 2.1-2.1h107.3c1.2 0 2.1.9 2.1 2.1 0 1.2-1 2.1-2.1 2.1z"
          />
          <path
            fill="#D9DEF9"
            d="M678.5 1046.8h-64.9c-1.2 0-2.1-.9-2.1-2.1 0-1.2.9-2.1 2.1-2.1h64.9c1.2 0 2.1.9 2.1 2.1 0 1.1-.9 2.1-2.1 2.1z"
          />
          <path
            fill="#D9DEF9"
            d="M658.7 1024.7h-45.1c-1.2 0-2.1-.9-2.1-2.1 0-1.2.9-2.1 2.1-2.1h45.1c1.2 0 2.1.9 2.1 2.1 0 1.2-1 2.1-2.1 2.1zm30.7 0h-21.8c-1.2 0-2.1-.9-2.1-2.1 0-1.2.9-2.1 2.1-2.1h21.8c1.2 0 2.1.9 2.1 2.1 0 1.2-1 2.1-2.1 2.1z"
          />
          <path
            fill="#D9DEF9"
            d="M705 1013.7h-91.4c-1.2 0-2.1-.9-2.1-2.1 0-1.2.9-2.1 2.1-2.1H705c1.2 0 2.1.9 2.1 2.1 0 1.2-1 2.1-2.1 2.1z"
          />
          <path
            fill="#D9DEF9"
            d="M698.4 1035.8h-84.8c-1.2 0-2.1-.9-2.1-2.1 0-1.2.9-2.1 2.1-2.1h84.8c1.2 0 2.1.9 2.1 2.1 0 1.1-.9 2.1-2.1 2.1z"
          />
          <path
            fill="#757ED8"
            d="M617.1 1190.2h84.8c2.9 0 5.2-2.3 5.2-5.2v-76.5c0-2.9-2.3-5.2-5.2-5.2h-84.8c-2.9 0-5.2 2.3-5.2 5.2v76.5c0 2.9 2.3 5.2 5.2 5.2z"
          />
          <path
            fill="#D9DEF9"
            d="M602.9 1163.8H538c-1.2 0-2.1-.9-2.1-2.1 0-1.2.9-2.1 2.1-2.1h64.9c1.2 0 2.1.9 2.1 2.1 0 1.1-1 2.1-2.1 2.1z"
          />
          <path
            fill="#D9DEF9"
            d="M583 1141.7h-45.1c-1.2 0-2.1-.9-2.1-2.1 0-1.2.9-2.1 2.1-2.1H583c1.2 0 2.1.9 2.1 2.1 0 1.2-.9 2.1-2.1 2.1zm30.7 0h-21.8c-1.2 0-2.1-.9-2.1-2.1 0-1.2.9-2.1 2.1-2.1h21.8c1.2 0 2.1.9 2.1 2.1 0 1.2-.9 2.1-2.1 2.1z"
          />
          <path
            fill="#D9DEF9"
            d="M629.3 1130.7h-91.4c-1.2 0-2.1-.9-2.1-2.1 0-1.2.9-2.1 2.1-2.1h91.4c1.2 0 2.1.9 2.1 2.1 0 1.2-.9 2.1-2.1 2.1z"
          />
          <path
            fill="#D9DEF9"
            d="M622.8 1152.8H538c-1.2 0-2.1-.9-2.1-2.1 0-1.2.9-2.1 2.1-2.1h84.8c1.2 0 2.1.9 2.1 2.1 0 1.1-1 2.1-2.1 2.1z"
          />
        </g>
        <animateTransform
          attributeName="transform"
          type="translate"
          from="0 290"
          to="0 0"
          fill="freeze"
          begin="0.2s"
          dur="1.92s"
          keySplines="0 0.69 0.19 1"
          keyTimes="0;1"
          calcMode="spline"
        />
        <animate attributeName="opacity" from="0" to="1" fill="freeze" begin="0s" dur="1.2s" />
      </g>
      <g transform="translate(0 230)" opacity="1">
        <g>
          <path
            fill="#6671D3"
            d="M977.7 454.8H759.1c-4 0-7.2-3.2-7.2-7.2V194c0-4 3.2-7.2 7.2-7.2h218.6c4 0 7.2 3.2 7.2 7.2v253.6c0 4-3.2 7.2-7.2 7.2z"
          />
          <path
            fill="#898EE5"
            d="M956.2 419.8H780.5c-1.4 0-2.6-1.1-2.6-2.6V223.3c0-1.4 1.1-2.6 2.6-2.6h175.7c1.4 0 2.6 1.1 2.6 2.6v193.9c0 1.5-1.1 2.6-2.6 2.6z"
          />
          <path
            fill="#D9DEF9"
            d="M886.6 364.6h-88.9c-1.6 0-2.9-1.3-2.9-2.9s1.3-2.9 2.9-2.9h89c1.6 0 2.9 1.3 2.9 2.9s-1.3 2.9-3 2.9z"
          />
          <path
            fill="#757ED8"
            d="M958.8 375.8v41.4c0 1.3-1.1 2.4-2.4 2.4h-176c-1.3 0-2.4-1.1-2.4-2.4v-41.4h180.8z"
          />
          <path
            fill="#A4ABED"
            d="M832.9 393c-1.2-1.2-2.8-1.9-4.6-1.9s-3.4.7-4.6 1.9l-.4.4c.6 1.2 1 2.6 1 4.1s-.3 2.9-1 4.1c.1.1.2.3.4.4 1.2 1.2 2.8 1.9 4.6 1.9s3.4-.7 4.6-1.9c1.2-1.2 1.9-2.8 1.9-4.6 0-1.6-.7-3.2-1.9-4.4zm13.5 0c-1.2-1.2-2.8-1.9-4.6-1.9s-3.4.7-4.6 1.9l-.4.4c.6 1.2 1 2.6 1 4.1s-.3 2.9-1 4.1c.1.1.2.3.4.4 1.2 1.2 2.8 1.9 4.6 1.9s3.4-.7 4.6-1.9c1.2-1.2 1.9-2.8 1.9-4.6 0-1.6-.8-3.2-1.9-4.4zm-26.3.5c-.1-.1-.2-.3-.4-.4-1.2-1.2-2.8-1.9-4.6-1.9s-3.4.7-4.6 1.9l-.4.4c.6 1.2 1 2.6 1 4.1s-.3 2.9-1 4.1c.1.1.2.3.4.4 1.2 1.2 2.8 1.9 4.6 1.9s3.4-.7 4.6-1.9l.4-.4c.3-.4.6-.9.9-1.4.4-.8.6-1.7.6-2.7 0-.9-.2-1.9-.6-2.7-.2-.5-.5-1-.9-1.4zm-12.3 1.4c-.2-.5-.5-1-.9-1.4-.1-.1-.2-.3-.4-.4-1.2-1.2-2.8-1.9-4.6-1.9s-3.4.7-4.6 1.9c-1.2 1.2-1.9 2.8-1.9 4.6 0 1.8.7 3.4 1.9 4.6s2.8 1.9 4.6 1.9 3.4-.7 4.6-1.9l.4-.4c.3-.4.6-.9.9-1.4.4-.8.6-1.7.6-2.7 0-1.1-.2-2.1-.6-2.9zm65.8 4.5H857c-1 0-1.8-.8-1.8-1.8s.8-1.8 1.8-1.8h16.6c1 0 1.8.8 1.8 1.8s-.8 1.8-1.8 1.8zm36.1 0h-27.6c-1 0-1.8-.8-1.8-1.8s.8-1.8 1.8-1.8h27.6c1 0 1.8.8 1.8 1.8s-.8 1.8-1.8 1.8z"
          />
        </g>
        <g>
          <path fill="#6671D3"
            d="M751.9 97.7v64.5c0 4 3.2 7.2 7.2 7.2h218.6c4 0 7.2-3.2 7.2-7.2V97.7h-233z" />
          <path fill="#727CD6"
            d="M984.9 59.6c0-4-3.2-7.2-7.2-7.2H759.1c-4 0-7.2 3.2-7.2 7.2v38.5h233V59.6z" />
          <path
            fill="#D9DEF9"
            d="M900.3 123.8H769.9c-1.6 0-2.9-1.3-2.9-2.9s1.3-2.9 2.9-2.9h130.3c1.6 0 2.9 1.3 2.9 2.9s-1.3 2.9-2.8 2.9zm62.3 0H916c-1.6 0-2.9-1.3-2.9-2.9s1.3-2.9 2.9-2.9h46.6c1.6 0 2.9 1.3 2.9 2.9s-1.3 2.9-2.9 2.9zM932 141.6h-99.6c-1.6 0-2.9-1.3-2.9-2.9 0-1.6 1.3-2.9 2.9-2.9H932c1.6 0 2.9 1.3 2.9 2.9s-1.2 2.9-2.9 2.9zm-115.5 0H770c-1.6 0-2.9-1.3-2.9-2.9 0-1.6 1.3-2.9 2.9-2.9h46.6c1.6 0 2.9 1.3 2.9 2.9-.1 1.6-1.4 2.9-3 2.9z"
          />
          <path
            fill="#A4ABED"
            d="M872.6 77.1H795c-1 0-1.8-.8-1.8-1.8s.8-1.8 1.8-1.8h77.6c1 0 1.8.8 1.8 1.8s-.8 1.8-1.8 1.8zm-95.4 5.2h-6c-2.1 0-3.7-1.7-3.7-3.7v-6c0-2.1 1.7-3.7 3.7-3.7h6c2.1 0 3.7 1.7 3.7 3.7v6c0 2-1.7 3.7-3.7 3.7z"
          />
        </g>
        <g>
          <path
            fill="#6671D3"
            d="M977.7 848.5H759c-4 0-7.2-3.2-7.2-7.2V482.2c0-4 3.2-7.2 7.2-7.2h218.6c4 0 7.2 3.2 7.2 7.2v359.1c.1 4-3.1 7.2-7.1 7.2z"
          />
          <path
            fill="#A4ABED"
            d="M965.2 832.2H771.5c-4 0-7.2-3.2-7.2-7.2V595.3c0-4 3.2-7.2 7.2-7.2h193.7c4 0 7.2 3.2 7.2 7.2V825c0 4-3.2 7.2-7.2 7.2z"
          />
          <path
            fill="#727CD6"
            d="M918.2 708.4h-99.7c-1.6 0-2.9-1.3-2.9-2.9 0-1.6 1.3-2.9 2.9-2.9h99.7c1.6 0 2.9 1.3 2.9 2.9 0 1.6-1.3 2.9-2.9 2.9zm-16.7 15.4h-66.2c-1.6 0-2.9-1.3-2.9-2.9 0-1.6 1.3-2.9 2.9-2.9h66.2c1.6 0 2.9 1.3 2.9 2.9 0 1.6-1.3 2.9-2.9 2.9z"
          />
          <path
            fill="#D9DEF9"
            d=" M 944.694 814.646 L 792.283 814.646 C 785.589 814.646 780.233 807.361 780.233 798.254 C 780.233 789.147 785.589 781.861 792.283 781.861 L 944.806 781.861 C 951.5 781.861 956.856 789.147 956.856 798.254 C 956.744 807.361 951.389 814.646 944.694 814.646 Z"
          />

          <path fill-rule="evenodd" clip-rule="evenodd"
            d="M 809.387 800.836 C 808.939 800.786 808.485 800.761 808.028 800.761 C 805.995 800.761 804.02 801.263 802.407 802.19 C 801.155 802.909 800.177 803.854 799.555 804.928 C 799.273 805.416 799.611 805.987 800.178 806.101 C 803.778 806.823 807.458 807.043 811.105 806.762 L 811.105 806.688 L 810.079 806.688 C 808.38 806.688 807.002 805.361 807.002 803.724 C 807.002 802.317 808.021 801.139 809.387 800.836 Z"
            fill="#727CD6" />
          <path d="M 814.183 799.773 L 814.183 807.676" stroke="#727CD6" stroke-width="2.5"
            stroke-linecap="round" />
          <path d="M 818.287 803.724 L 810.079 803.724" stroke="#727CD6" stroke-width="2.5"
            stroke-linecap="round" />
          <circle cx="12" cy="8" r="5" fill="#727CD6"
            transform="matrix(1.025923, 0, 0, 0.987868, 795.716736, 785.942627)" />

          <path fill="#727CD6"
            d="M 846.193 789.098 C 846.987 788.303 848.064 787.857 849.189 787.857 C 850.313 787.857 851.392 788.303 852.186 789.098 C 852.982 789.892 853.427 790.971 853.427 792.095 L 853.427 797.022 C 853.427 797.999 853.091 798.94 852.481 799.693 L 853.95 801.161 C 854.793 800.209 855.303 798.957 855.303 797.586 C 855.303 796.991 855.787 796.507 856.383 796.507 C 856.978 796.507 857.461 796.991 857.461 797.586 C 857.461 799.554 856.708 801.346 855.477 802.689 L 858.943 806.155 C 859.365 806.576 859.365 807.26 858.943 807.681 C 858.522 808.103 857.838 808.103 857.418 807.681 L 850.713 800.977 C 850.711 800.977 850.711 800.977 850.71 800.979 L 844.951 795.218 L 844.951 795.214 L 839.435 789.698 C 839.014 789.277 839.014 788.593 839.435 788.172 C 839.855 787.75 840.539 787.75 840.96 788.172 L 844.951 792.163 L 844.951 792.095 C 844.951 790.971 845.397 789.892 846.193 789.098 Z M 850.268 804.06 C 850.268 803.465 849.785 802.981 849.189 802.981 L 849.169 802.981 L 848.47 802.981 C 845.49 802.981 843.075 800.566 843.075 797.586 C 843.075 796.991 842.592 796.507 841.996 796.507 C 841.401 796.507 840.917 796.991 840.917 797.586 C 840.917 801.638 844.105 804.944 848.11 805.131 L 848.11 806.876 C 848.11 807.471 848.594 807.955 849.189 807.955 C 849.785 807.955 850.268 807.471 850.268 806.876 L 850.268 804.06 Z"
          />
          <path fill="#727CD6"
            d="M 882.643 791.08 C 882.213 790.702 882.213 790.09 882.643 789.712 C 883.074 789.334 883.771 789.334 884.201 789.712 L 886.816 792.008 L 895.539 792.008 C 896.755 792.008 897.742 792.874 897.742 793.942 L 897.742 794.898 L 900.835 793.734 C 901.804 793.37 902.882 793.994 902.882 794.92 L 902.882 801.99 C 902.882 802.916 901.804 803.54 900.835 803.176 L 898.562 802.32 L 902.559 805.83 C 902.99 806.208 902.99 806.82 902.559 807.198 C 902.129 807.576 901.432 807.576 901.002 807.198 L 882.643 791.08 Z M 882.321 793.942 C 882.321 793.685 882.378 793.44 882.482 793.215 L 895.78 804.891 C 895.7 804.898 895.62 804.902 895.539 804.902 L 884.524 804.902 C 883.307 804.902 882.321 804.036 882.321 802.968 L 882.321 793.942 Z"
          />
          <path fill="#727CD6"
            d=" M 927.664 789.521 L 928.437 788.83 C 928.928 788.391 929.726 788.391 930.219 788.83 L 933.478 791.739 C 933.97 792.179 933.97 792.892 933.478 793.33 L 931.219 795.347 C 930.842 795.684 930.749 796.197 930.987 796.622 C 932.364 799.081 934.597 801.075 937.351 802.304 C 937.828 802.516 938.403 802.433 938.78 802.097 L 941.039 800.081 C 941.531 799.641 942.329 799.641 942.821 800.081 L 946.08 802.989 C 946.572 803.429 946.572 804.141 946.08 804.58 L 945.307 805.271 C 942.646 807.646 938.434 807.913 935.424 805.897 L 933.9 804.878 C 931.703 803.406 929.752 801.664 928.103 799.703 L 926.961 798.344 C 924.704 795.656 925.003 791.896 927.664 789.521 Z"
          />
          <path
            fill="#8592E0"
            d="M891.9 503.4h-47.1c-.9 0-1.7-.8-1.7-1.7 0-.9.8-1.7 1.7-1.7h47.1c.9 0 1.7.8 1.7 1.7 0 1-.8 1.7-1.7 1.7z"
          />
          <path
            fill="#4258B2"
            d="M877.3 491.2h-17.9c-.4 0-.7.3-.7.7 0 .4.3.7.7.7h17.9c.4 0 .7-.3.7-.7 0-.4-.3-.7-.7-.7z"
          />
          <path
            fill="#727CD6"
            d="M937.7 676.2H799c-4.1 0-7.4-3.3-7.4-7.4V530.1c0-4.1 3.3-7.4 7.4-7.4h138.7c4.1 0 7.4 3.3 7.4 7.4v138.7c0 4.1-3.3 7.4-7.4 7.4z"
          />
          <path
            fill="#898EE5"
            d="M937.7 672.1H799c-4.1 0-7.4-3.3-7.4-7.4V525.9c0-4.1 3.3-7.4 7.4-7.4h138.7c4.1 0 7.4 3.3 7.4 7.4v138.7c0 4.2-3.3 7.5-7.4 7.5z"
          />
          <path
            fill="#6671D3"
            d="M 911.525 591.952 C 911.525 603.214 907.093 613.44 899.879 620.982 C 892.259 628.947 881.535 633.918 869.65 633.952 C 869.609 633.952 869.567 633.952 869.525 633.952 C 869.483 633.952 869.442 633.952 869.4 633.952 C 857.515 633.918 846.792 628.947 839.172 620.982 C 831.957 613.44 827.525 603.214 827.525 591.952 C 827.525 568.757 846.329 549.952 869.525 549.952 C 892.721 549.952 911.525 568.757 911.525 591.952 Z M 894.982 612.952 C 888.93 605.623 879.773 600.952 869.525 600.952 C 859.278 600.952 850.121 605.623 844.068 612.952 C 850.121 620.281 859.278 624.952 869.525 624.952 C 879.773 624.952 888.93 620.281 894.982 612.952 Z M 869.526 594.952 C 877.81 594.952 884.526 588.237 884.526 579.952 C 884.526 571.668 877.81 564.952 869.526 564.952 C 861.242 564.952 854.526 571.668 854.526 579.952 C 854.526 588.237 861.242 594.952 869.526 594.952 Z"
          />
        </g>
        <g>
          <path fill="#6671D3"
            d="M752 913.7v64.5c0 4 3.2 7.2 7.2 7.2h218.6c4 0 7.2-3.2 7.2-7.2v-64.5H752z" />
          <path fill="#727CD6"
            d="M985 875.5c0-4-3.2-7.2-7.2-7.2H759.2c-4 0-7.2 3.2-7.2 7.2V914h233v-38.5z" />
          <path
            fill="#A4ABED"
            d="M872.7 893h-77.6c-1 0-1.8-.8-1.8-1.8s.8-1.8 1.8-1.8h77.6c1 0 1.8.8 1.8 1.8s-.8 1.8-1.8 1.8zm-95.4 5.2h-6c-2.1 0-3.7-1.7-3.7-3.7v-6c0-2.1 1.7-3.7 3.7-3.7h6c2.1 0 3.7 1.7 3.7 3.7v6c0 2-1.7 3.7-3.7 3.7zm34.2 31.2h37.9v38.8h-37.9v-38.8z"
          />
          <path fill="#727CD6" d="M849.4 929.4h37.9v38.8h-37.9v-38.8z" />
          <path
            fill="#AEB7ED"
            d="M776.1 929.4c-1.4 0-2.5 1.1-2.5 2.5v33.8c0 1.4 1.1 2.5 2.5 2.5h35.4v-38.8h-35.4z"
          />
          <path fill="#8592E0" d="M887.3 929.4h37.9v38.8h-37.9v-38.8z" />
          <path
            fill="#A4ABED"
            d="M960.6 929.4h-35.4v38.8h35.4c1.4 0 2.5-1.1 2.5-2.5v-33.8c.1-1.4-1.1-2.5-2.5-2.5z"
          />
        </g>
        <animateTransform
          attributeName="transform"
          type="translate"
          from="0 230"
          to="0 0"
          fill="freeze"
          begin="0.2s"
          dur="1.88s"
          keySplines="0 0.69 0.19 1"
          keyTimes="0;1"
          calcMode="spline"
        />
        <animate attributeName="opacity" from="0" to="1" fill="freeze" begin="0" dur="1.2s" />
      </g>
      <g transform="translate(0 190)" opacity="1">
        <g>
          <path
            fill="#6671D3"
            d="M1229 338.5h-218.6c-4 0-7.2-3.2-7.2-7.2V7.2c0-4 3.2-7.2 7.2-7.2H1229c4 0 7.2 3.2 7.2 7.2v324.1c0 4-3.2 7.2-7.2 7.2z"
          />
          <path
            fill="#898EE5"
            d="M1212.8 224.1h-186.1c-4 0-7.2-3.2-7.2-7.2V26.1c0-4 3.2-7.2 7.2-7.2h186.2c4 0 7.2 3.2 7.2 7.2V217c-.2 3.9-3.4 7.1-7.3 7.1z"
          />
          <path
            fill="#A4ABED"
            d="M1167.1 73.1l-64.9 119.7c-.7 1.3-2.1 2.1-3.6 2.1-.6 0-1.6-.1-2.5-.9-13.1-10.7-22.2-25.7-25.6-42.3-1.7-8.3-1.9-16.7-.7-25 1.2-8.6 4-16.9 8.2-24.6 6.4-11.8 15.9-21.6 27.5-28.4 11.3-6.5 24-10 37-10 7.6 0 15.2 1.2 22.4 3.5 1.5.5 2.2 1.7 2.5 2.3.2.8.5 2.2-.3 3.6zm3.8 151.4c-1.2 8.6-4 16.9-8.2 24.6-6.4 11.8-15.9 21.6-27.5 28.4-11.3 6.5-24 10-37 10-7.6 0-15.2-1.2-22.4-3.5-1.5-.5-2.2-1.7-2.5-2.3-.2-.6-.6-2 .2-3.5l65-119.6c.7-1.3 2.1-2.1 3.6-2.1.6 0 1.6.1 2.5.9 13.1 10.6 22.2 25.6 25.6 42.3 1.6 8 1.9 16.4.7 24.8z"
          />
        </g>
        <g>
          <path fill="#727CD6"
            d="M1236.3 366.9c0-4-3.2-7.2-7.2-7.2h-218.6c-4 0-7.2 3.2-7.2 7.2v38.5h233v-38.5z" />
          <path
            fill="#D9DEF9"
            d="M1152.2 431.1h-130.3c-1.6 0-2.9-1.3-2.9-2.9s1.3-2.9 2.9-2.9h130.3c1.6 0 2.9 1.3 2.9 2.9s-1.3 2.9-2.9 2.9zm62.3 0h-46.6c-1.6 0-2.9-1.3-2.9-2.9s1.3-2.9 2.9-2.9h46.6c1.6 0 2.9 1.3 2.9 2.9s-1.3 2.9-2.9 2.9z"
          />
          <path
            fill="#A4ABED"
            d="M1184 449h-99.6c-1.6 0-2.9-1.3-2.9-2.9s1.3-2.9 2.9-2.9h99.6c1.6 0 2.9 1.3 2.9 2.9 0 1.5-1.3 2.9-2.9 2.9z"
          />
          <path
            fill="#D9DEF9"
            d="M1068.4 449h-46.6c-1.6 0-2.9-1.3-2.9-2.9s1.3-2.9 2.9-2.9h46.6c1.6 0 2.9 1.3 2.9 2.9 0 1.5-1.3 2.9-2.9 2.9z"
          />
          <path
            fill="#A4ABED"
            d="M1114.6 467.2h-92.8c-1.6 0-2.9-1.3-2.9-2.9s1.3-2.9 2.9-2.9h92.8c1.6 0 2.9 1.3 2.9 2.9.1 1.5-1.2 2.9-2.9 2.9z"
          />
          <path
            fill="#D9DEF9"
            d="M1195.9 467.2h-65.4c-1.6 0-2.9-1.3-2.9-2.9s1.3-2.9 2.9-2.9h65.4c1.6 0 2.9 1.3 2.9 2.9 0 1.5-1.3 2.9-2.9 2.9zM1068.4 485h-46.6c-1.6 0-2.9-1.3-2.9-2.9s1.3-2.9 2.9-2.9h46.6c1.6 0 2.9 1.3 2.9 2.9s-1.3 2.9-2.9 2.9z"
          />
          <path
            fill="#A4ABED"
            d="M1100.8 516.2h-78.9c-1.6 0-2.9-1.3-2.9-2.9 0-1.6 1.3-2.9 2.9-2.9h78.9c1.6 0 2.9 1.3 2.9 2.9 0 1.7-1.3 2.9-2.9 2.9z"
          />
          <path
            fill="#D9DEF9"
            d="M1214.5 516.2h-97.9c-1.6 0-2.9-1.3-2.9-2.9 0-1.6 1.3-2.9 2.9-2.9h97.9c1.6 0 2.9 1.3 2.9 2.9 0 1.7-1.3 2.9-2.9 2.9z"
          />
          <path
            fill="#A4ABED"
            d="M1198.6 534.1h-92.9c-1.6 0-2.9-1.3-2.9-2.9 0-1.6 1.3-2.9 2.9-2.9h93c1.6 0 2.9 1.3 2.9 2.9-.1 1.6-1.4 2.9-3 2.9zm-108.8 0h-67.9c-1.6 0-2.9-1.3-2.9-2.9 0-1.6 1.3-2.9 2.9-2.9h67.9c1.6 0 2.9 1.3 2.9 2.9 0 1.6-1.4 2.9-2.9 2.9z"
          />
          <path
            fill="#D9DEF9"
            d="M1060.8 552.3h-38.9c-1.6 0-2.9-1.3-2.9-2.9 0-1.6 1.3-2.9 2.9-2.9h38.9c1.6 0 2.9 1.3 2.9 2.9 0 1.5-1.3 2.9-2.9 2.9z"
          />
          <path fill="#6671D3"
            d="M1003.3 405.4v167c0 4 3.2 7.2 7.2 7.2h218.6c4 0 7.2-3.2 7.2-7.2v-167h-233z" />
          <path
            fill="#D9DEF9"
            d="M1151.7 431.1h-130.3c-1.6 0-2.9-1.3-2.9-2.9s1.3-2.9 2.9-2.9h130.3c1.6 0 2.9 1.3 2.9 2.9s-1.3 2.9-2.9 2.9zm62.3 0h-46.6c-1.6 0-2.9-1.3-2.9-2.9s1.3-2.9 2.9-2.9h46.6c1.6 0 2.9 1.3 2.9 2.9s-1.3 2.9-2.9 2.9z"
          />
          <path
            fill="#A4ABED"
            d="M1183.5 449h-99.6c-1.6 0-2.9-1.3-2.9-2.9s1.3-2.9 2.9-2.9h99.6c1.6 0 2.9 1.3 2.9 2.9 0 1.5-1.3 2.9-2.9 2.9z"
          />
          <path
            fill="#D9DEF9"
            d="M1067.9 449h-46.6c-1.6 0-2.9-1.3-2.9-2.9s1.3-2.9 2.9-2.9h46.6c1.6 0 2.9 1.3 2.9 2.9 0 1.5-1.3 2.9-2.9 2.9z"
          />
          <path
            fill="#A4ABED"
            d="M1114.1 467.2h-92.8c-1.6 0-2.9-1.3-2.9-2.9s1.3-2.9 2.9-2.9h92.8c1.6 0 2.9 1.3 2.9 2.9.1 1.5-1.2 2.9-2.9 2.9z"
          />
          <path
            fill="#D9DEF9"
            d="M1195.4 467.2H1130c-1.6 0-2.9-1.3-2.9-2.9s1.3-2.9 2.9-2.9h65.4c1.6 0 2.9 1.3 2.9 2.9 0 1.5-1.3 2.9-2.9 2.9zM1067.9 485h-46.6c-1.6 0-2.9-1.3-2.9-2.9s1.3-2.9 2.9-2.9h46.6c1.6 0 2.9 1.3 2.9 2.9s-1.3 2.9-2.9 2.9z"
          />
          <path
            fill="#A4ABED"
            d="M1100.3 516.2h-78.9c-1.6 0-2.9-1.3-2.9-2.9 0-1.6 1.3-2.9 2.9-2.9h78.9c1.6 0 2.9 1.3 2.9 2.9 0 1.7-1.3 2.9-2.9 2.9z"
          />
          <path
            fill="#D9DEF9"
            d="M1214 516.2h-97.9c-1.6 0-2.9-1.3-2.9-2.9 0-1.6 1.3-2.9 2.9-2.9h97.9c1.6 0 2.9 1.3 2.9 2.9 0 1.7-1.3 2.9-2.9 2.9z"
          />
          <path
            fill="#A4ABED"
            d="M1198.1 534.1h-92.9c-1.6 0-2.9-1.3-2.9-2.9 0-1.6 1.3-2.9 2.9-2.9h93c1.6 0 2.9 1.3 2.9 2.9-.1 1.6-1.4 2.9-3 2.9zm-108.8 0h-67.9c-1.6 0-2.9-1.3-2.9-2.9 0-1.6 1.3-2.9 2.9-2.9h67.9c1.6 0 2.9 1.3 2.9 2.9 0 1.6-1.4 2.9-2.9 2.9z"
          />
          <path
            fill="#D9DEF9"
            d="M1060.3 552.3h-38.9c-1.6 0-2.9-1.3-2.9-2.9 0-1.6 1.3-2.9 2.9-2.9h38.9c1.6 0 2.9 1.3 2.9 2.9 0 1.5-1.3 2.9-2.9 2.9z"
          />
          <path
            fill="#A4ABED"
            d="M1028.6 389.6h-6c-2.1 0-3.7-1.7-3.7-3.7v-6c0-2.1 1.7-3.7 3.7-3.7h6c2.1 0 3.7 1.7 3.7 3.7v6c0 2-1.7 3.7-3.7 3.7zm95.5-5.2h-77.7c-1 0-1.8-.8-1.8-1.8s.8-1.8 1.8-1.8h77.6c1 0 1.8.8 1.8 1.8.1 1-.7 1.8-1.7 1.8zm7.9 167.9h-55.9c-1.6 0-2.9-1.3-2.9-2.9 0-1.6 1.3-2.9 2.9-2.9h55.9c1.6 0 2.9 1.3 2.9 2.9 0 1.5-1.3 2.9-2.9 2.9z"
          />
        </g>
        <g>
          <path
            fill="#6671D3"
            d="M1229.2 824.1h-218.6c-4 0-7.2-3.2-7.2-7.2V606.8c0-4 3.2-7.2 7.2-7.2h218.6c4 0 7.2 3.2 7.2 7.2v210.1c0 4-3.3 7.2-7.2 7.2z"
          />
          <path
            fill="#A4ABED"
            d="M1142.5 665.1c1.5-.3 6.9-1.4 12 0 .2 0 .4.3.4.5v7.6c0 .3-.2.5-.5.5h-.6v17.5s0 4.4 1.6 5.8c3.5 3.2 6.1 6.8 6.6 11.9.4 5.1.4 19.4.4 26.7s-.1 39.8-.2 42.8c-.1 2.5-.5 3.5-.6 3.7-.3 1.3-6 2.3-13 2.3s-12.6-1-12.9-2.3c-.1-.1-.5-1.1-.6-3.7-.1-3-.3-35.5-.2-42.8 0-7.3 0-21.6.4-26.7.4-5.1 3.1-8.7 6.6-11.9 1.6-1.4 1.6-5.8 1.6-5.8v-17.4h-.6c-.3 0-.5-.2-.5-.5v-7.6c-.3-.4-.1-.6.1-.6zm-57.2 0c1.5-.3 6.9-1.4 12 0 .2 0 .4.3.4.5v7.6c0 .3-.2.5-.5.5h-.6v17.5s0 4.4 1.6 5.8c3.5 3.2 6.1 6.8 6.6 11.9.4 5.1.4 19.4.4 26.7s-.1 39.8-.2 42.8c-.1 2.5-.5 3.5-.6 3.7-.3 1.3-6 2.3-13 2.3s-12.6-1-12.9-2.3c-.1-.1-.5-1.1-.6-3.7-.1-3-.3-35.5-.2-42.8 0-7.3 0-21.6.4-26.7.4-5.1 3.1-8.7 6.6-11.9 1.6-1.4 1.6-5.8 1.6-5.8v-17.4h-.6c-.3 0-.5-.2-.5-.5v-7.6c-.3-.4-.1-.6.1-.6z"
          />
          <path
            fill="#898EE5"
            d="M1111.1 635.8c2.2-.4 10.1-1.8 17.5 0 .3.1.6.3.6.7v10c0 .4-.3.7-.8.7h-1v23.1s0 5.8 2.3 7.7c5.1 4.3 9 9 9.7 15.8s.5 25.6.6 35.2c0 9.6-.2 52.5-.3 56.5-.1 3.3-.7 4.6-.9 4.9-.5 1.7-8.9 3.1-19 3.1-10.2 0-18.5-1.3-19-3.1-.1-.2-.8-1.4-.9-4.9-.1-3.9-.4-46.8-.3-56.5 0-9.6 0-28.5.6-35.2s4.6-11.5 9.7-15.8c2.4-1.9 2.3-7.7 2.3-7.7v-23.1h-1c-.4 0-.8-.3-.8-.7v-10c.1-.3.4-.6.7-.7z"
          />
        </g>
        <animateTransform
          attributeName="transform"
          type="translate"
          from="0 190"
          to="0 0"
          fill="freeze"
          begin="0.2s"
          dur="1.84s"
          keySplines="0 0.69 0.19 1"
          keyTimes="0;1"
          calcMode="spline"
        />
        <animate attributeName="opacity" from="0" to="1" fill="freeze" begin="0s" dur="1.2s" />
      </g>
      <g transform="translate(0 160)" opacity="1">
        <g>
          <path
            fill="#727CD6"
            d="M1253.2 513.4c0 4 3.2 7.2 7.2 7.2H1479c4 0 7.2-3.2 7.2-7.2v-40.2l-233 1.1v39.1z"
          />
          <path
            fill="#6671D3"
            d="M1486.2 255.5c0-4-3.2-7.2-7.2-7.2h-218.6c-4 0-7.2 3.2-7.2 7.2v218.8h233V255.5z"
          />
          <path
            fill="#A4ABED"
            d="M1470.3 510.4h-201.7c-1.8 0-3.2-1.4-3.2-3.2v-19.6c0-1.8 1.4-3.2 3.2-3.2h201.7c1.8 0 3.2 1.4 3.2 3.2v19.6c0 1.7-1.5 3.2-3.2 3.2z"
          />
          <path
            fill="#898EE5"
            d="M1315.1 445.4c0 2.8 2.3 5.2 5.2 5.2h132.6c2.8 0 5.2-2.3 5.2-5.2v-33.5c0-2.8-2.3-5.2-5.2-5.2h-120.4v-.1h-22.7c-2 0-3 2.5-1.5 3.9l6.8 6.4c.1.1 0 28.5 0 28.5z"
          />
          <circle cx="1285.4" cy="412.3" r="12.4" fill="#A4ABED" />
          <path
            fill="#A4ABED"
            d="M1446.5 444.4h-21.1c-1.2 0-2.2-1-2.2-2.2s1-2.2 2.2-2.2h21.1c1.2 0 2.2 1 2.2 2.2-.1 1.2-1 2.2-2.2 2.2z"
          />
          <path
            fill="#727CD6"
            d="M1364.4 421.8H1328c-1.2 0-2.2-1-2.2-2.2s1-2.2 2.2-2.2h36.4c1.2 0 2.2 1 2.2 2.2s-1 2.2-2.2 2.2zm29.2 11.7H1328c-1.2 0-2.2-1-2.2-2.2s1-2.2 2.2-2.2h65.6c1.2 0 2.2 1 2.2 2.2 0 1.2-1 2.2-2.2 2.2zm54.1-11.7h-69.4c-1.2 0-2.2-1-2.2-2.2s1-2.2 2.2-2.2h69.4c1.2 0 2.2 1 2.2 2.2-.1 1.2-1 2.2-2.2 2.2z"
          />
          <path
            fill="#6671D3"
            d="M1344.4 500.2H1275c-1.2 0-2.2-1-2.2-2.2s1-2.2 2.2-2.2h69.4c1.2 0 2.2 1 2.2 2.2s-1 2.2-2.2 2.2z"
          />
          <path
            fill="#898EE5"
            d="M1315.1 322.7c0 2.8 2.3 5.2 5.2 5.2h132.6c2.8 0 5.2-2.3 5.2-5.2v-33.5c0-2.8-2.3-5.2-5.2-5.2h-120.4v-.1h-22.7c-2 0-3 2.5-1.5 3.9l6.8 6.4c.1.2 0 28.5 0 28.5z"
          />
          <circle cx="1285.4" cy="289.7" r="12.4" fill="#A4ABED" />
          <path
            fill="#A4ABED"
            d="M1446.5 321.8h-21.1c-1.2 0-2.2-1-2.2-2.2s1-2.2 2.2-2.2h21.1c1.2 0 2.2 1 2.2 2.2-.1 1.2-1 2.2-2.2 2.2z"
          />
          <path
            fill="#727CD6"
            d="M1364.4 299.1H1328c-1.2 0-2.2-1-2.2-2.2s1-2.2 2.2-2.2h36.4c1.2 0 2.2 1 2.2 2.2 0 1.3-1 2.2-2.2 2.2zm29.2 11.8H1328c-1.2 0-2.2-1-2.2-2.2s1-2.2 2.2-2.2h65.6c1.2 0 2.2 1 2.2 2.2 0 1.2-1 2.2-2.2 2.2zm54.1-11.8h-69.4c-1.2 0-2.2-1-2.2-2.2s1-2.2 2.2-2.2h69.4c1.2 0 2.2 1 2.2 2.2-.1 1.3-1 2.2-2.2 2.2z"
          />
          <path
            fill="#898EE5"
            d="M1423.9 378.4c0 2.8-2.3 5.2-5.2 5.2h-132.6c-2.8 0-5.2-2.3-5.2-5.2v-22.2c0-2.8 2.3-5.2 5.2-5.2h120.4v-.1h22.7c2 0 3 2.5 1.5 3.9l-6.8 6.4v17.2z"
          />
          <circle cx="1453.7" cy="356.7" r="12.4" fill="#A4ABED" />
          <path
            fill="#A4ABED"
            d="M1391.4 376.9h21.1c1.2 0 2.2-1 2.2-2.2s-1-2.2-2.2-2.2h-21.1c-1.2 0-2.2 1-2.2 2.2.1 1.2 1 2.2 2.2 2.2z"
          />
          <path
            fill="#727CD6"
            d="M1350.5 366.1h51.2c1.2 0 2.2-1 2.2-2.2s-1-2.2-2.2-2.2h-51.2c-1.2 0-2.2 1-2.2 2.2.1 1.2 1.1 2.2 2.2 2.2zm-59.2 0h47.2c1.2 0 2.2-1 2.2-2.2s-1-2.2-2.2-2.2h-47.2c-1.2 0-2.2 1-2.2 2.2s1.1 2.2 2.2 2.2z"
          />
          <path
            fill="#6671D3"
            d="M1470.3 510.4h-62.7v-26.1h62.7c1.8 0 3.2 1.4 3.2 3.2v19.6c0 1.8-1.5 3.3-3.2 3.3z"
          />
          <path
            fill="#898EE5"
            d="M1453.3 498.9h-25.5c-1.2 0-2.2-1-2.2-2.2s1-2.2 2.2-2.2h25.5c1.2 0 2.2 1 2.2 2.2-.1 1.3-1.1 2.2-2.2 2.2z"
          />
          
        </g>
        <g>
          <path fill="#6671D3"
            d="M1253.1 586v64.3c0 4 3.2 7.2 7.2 7.2H1479c4 0 7.2-3.2 7.2-7.2V586h-233.1z" />
          <path fill="#727CD6"
            d="M1486.1 547.8c0-4-3.2-7.2-7.2-7.2h-218.6c-4 0-7.2 3.2-7.2 7.2v38.5h233v-38.5z" />
          <path
            fill="#D9DEF9"
            d="M1401.5 611.9h-130.3c-1.6 0-2.9-1.3-2.9-2.9 0-1.6 1.3-2.9 2.9-2.9h130.3c1.6 0 2.9 1.3 2.9 2.9s-1.3 2.9-2.9 2.9zm62.3 0h-46.6c-1.6 0-2.9-1.3-2.9-2.9 0-1.6 1.3-2.9 2.9-2.9h46.6c1.6 0 2.9 1.3 2.9 2.9.1 1.6-1.3 2.9-2.9 2.9zm-30.5 17.9h-99.6c-1.6 0-2.9-1.3-2.9-2.9 0-1.6 1.3-2.9 2.9-2.9h99.6c1.6 0 2.9 1.3 2.9 2.9 0 1.6-1.3 2.9-2.9 2.9zm-115.6 0h-46.5c-1.6 0-2.9-1.3-2.9-2.9 0-1.6 1.3-2.9 2.9-2.9h46.6c1.6 0 2.9 1.3 2.9 2.9s-1.3 2.9-3 2.9z"
          />
          <path
            fill="#A4ABED"
            d="M1373.9 565.2h-77.6c-1 0-1.8-.8-1.8-1.8s.8-1.8 1.8-1.8h77.6c1 0 1.8.8 1.8 1.8s-.8 1.8-1.8 1.8zm-95.5 5.2h-6c-2.1 0-3.7-1.7-3.7-3.7v-6c0-2.1 1.7-3.7 3.7-3.7h6c2.1 0 3.7 1.7 3.7 3.7v6c0 2-1.6 3.7-3.7 3.7z"
          />
        </g>
        <g>
          <path fill="#6671D3" d="M1253.2 156.1v65c0 4 3.2 7.2 7.2 7.2H1479c4 0 7.2-3.2 7.2-7.2v-65" />
          <path fill="#727CD6"
            d="M1486.2 118.5c0-4-3.2-7.2-7.2-7.2h-218.6c-4 0-7.2 3.2-7.2 7.2V157h233v-38.5z" />
          <path
            fill="#A4ABED"
            d="M1374 136h-77.6c-1 0-1.8-.8-1.8-1.8s.8-1.8 1.8-1.8h77.6c1 0 1.8.8 1.8 1.8s-.8 1.8-1.8 1.8zm-95.5 5.2h-6c-2.1 0-3.7-1.7-3.7-3.7v-6c0-2.1 1.7-3.7 3.7-3.7h6c2.1 0 3.7 1.7 3.7 3.7v6c0 2-1.6 3.7-3.7 3.7zm34.2 31.2h37.9v38.8h-37.9v-38.8z"
          />
          <path fill="#727CD6" d="M1350.7 172.4h37.9v38.8h-37.9v-38.8z" />
          <path
            fill="#AEB7ED"
            d="M1277.3 172.4c-1.4 0-2.5 1.1-2.5 2.5v33.8c0 1.4 1.1 2.5 2.5 2.5h35.4v-38.8h-35.4z"
          />
          <path fill="#8592E0" d="M1388.6 172.4h37.9v38.8h-37.9v-38.8z" />
          <path
            fill="#A4ABED"
            d="M1461.9 172.4h-35.4v38.8h35.4c1.4 0 2.5-1.1 2.5-2.5v-33.8c0-1.4-1.1-2.5-2.5-2.5z"
          />
        </g>
        <animateTransform
          attributeName="transform"
          type="translate"
          from="0 160"
          to="0 0"
          fill="freeze"
          begin="0.2s"
          dur="1.8s"
          keySplines="0 0.69 0.19 1"
          keyTimes="0;1"
          calcMode="spline"
        />
        <animate attributeName="opacity" from="0" to="1" fill="freeze" begin="0s" dur="1.2s" />
      </g>
    </g>
  </g>
</svg>