<svg width="216" height="232" viewBox="0 0 216 232" fill="none" xmlns="http://www.w3.org/2000/svg">
  <path
    d="M189.283 32.8416C170.758 14.5781 140.71 14.6394 122.247 32.9028L85.3211 69.4297C80.7364 73.9649 77.1429 79.3581 74.7886 85.3029C68.8408 87.6318 63.3267 91.2477 58.742 95.7216L45.6692 108.653C44.1203 110.185 44.1203 112.637 45.6692 114.108C47.2181 115.64 49.6964 115.64 51.1833 114.108L64.2561 101.176C66.5484 98.9085 69.1506 96.8861 72.0006 95.2313C71.8766 95.9668 71.8147 96.7635 71.6908 97.4989C71.6288 97.8666 71.6288 98.2344 71.5669 98.6021C71.5669 98.7247 71.5669 98.9085 71.5049 99.0311C71.443 99.5827 71.443 100.073 71.381 100.625C71.381 100.747 71.381 100.808 71.381 100.931C71.381 101.483 71.319 102.034 71.319 102.647C71.319 103.076 71.319 103.444 71.319 103.873C71.319 103.934 71.319 103.995 71.319 104.057C71.319 104.424 71.319 104.731 71.381 105.098V105.16C70.8234 105.65 70.2658 106.202 69.7082 106.692L32.4726 143.525C26.5248 149.531 23.2412 157.437 23.3651 165.833C23.489 174.23 26.7727 182.136 32.8443 188.019C39.04 194.025 47.0942 197.028 55.1485 197.028C63.3887 197.028 71.5669 193.903 77.7625 187.652L114.688 151.125C115.742 150.083 116.733 148.98 117.6 147.754C117.724 147.631 117.848 147.448 117.91 147.325C121.565 142.361 123.61 136.477 123.92 130.349V130.287C123.92 129.858 123.92 129.429 123.92 129C123.982 112.698 111.405 99.2149 95.296 97.6215C95.7297 95.6603 96.4112 93.7604 97.2786 91.9831C97.2786 91.9831 97.2786 91.9218 97.3406 91.9218C97.4645 91.6767 97.6503 91.3703 97.7743 91.1251C97.8362 91.0638 97.8362 91.0025 97.8982 90.9413C98.0221 90.6961 98.208 90.451 98.3319 90.2058C102.793 90.88 107.068 92.2896 111.033 94.4346C112.953 95.4765 115.308 94.741 116.299 92.9024C117.352 91.0025 116.609 88.6737 114.75 87.6931C111.343 85.8545 107.811 84.5062 104.156 83.5256L138.727 49.3277C138.851 49.2051 139.037 49.0825 139.161 48.9599C140.772 47.5503 140.896 45.0989 139.471 43.5054C138.046 41.912 135.567 41.7894 133.957 43.199C133.709 43.4441 133.461 43.628 133.213 43.8731L96.2873 80.4C95.2341 81.4418 94.2428 82.6063 93.3134 83.7707C93.2515 83.832 93.2515 83.8933 93.1895 83.8933C92.9417 84.1997 92.6939 84.5674 92.508 84.8739C92.3841 84.9965 92.3221 85.1803 92.1982 85.3029C92.0123 85.548 91.8884 85.7932 91.7026 86.0383C91.5787 86.2222 91.5167 86.3448 91.3928 86.5286C91.2689 86.7738 91.145 87.0189 90.9591 87.2028C90.7113 87.6318 90.4635 88.0608 90.2776 88.4898C90.2156 88.5511 90.2156 88.6737 90.1537 88.7349C89.9678 89.0414 89.8439 89.3478 89.72 89.7155C89.72 89.7768 89.658 89.8381 89.658 89.8381C87.2417 95.17 86.3744 101.115 87.2417 106.998C88.4189 115.333 92.8178 122.688 99.6329 127.713C104.28 131.145 109.794 133.29 115.556 133.842C114.998 136.477 113.945 138.99 112.582 141.258C94.9243 138.5 81.1081 124.159 79.3114 106.385C79.1875 105.037 79.1255 103.75 79.1255 102.524C79.1255 101.421 79.1875 100.379 79.2494 99.2762C79.2494 99.215 79.2494 99.1537 79.2494 99.0924C79.3114 98.6021 79.3733 98.1118 79.4353 97.6215C79.4353 97.4989 79.4972 97.3764 79.4972 97.2538C79.5592 96.9473 79.5592 96.6409 79.6211 96.3345C79.6831 95.9055 79.7451 95.4765 79.869 95.0475C79.869 94.9862 79.869 94.9249 79.9309 94.8636C81.4798 87.3253 85.1972 80.3387 90.7732 74.8842L127.699 38.3574C143.126 23.097 168.218 23.0357 183.707 38.2961C196.904 51.2888 199.072 71.9424 188.974 87.3866C187.796 89.1639 188.292 91.5541 190.089 92.7186C191.885 93.883 194.302 93.3927 195.479 91.6154C207.684 73.1069 205.02 48.4084 189.283 32.8416ZM95.1102 105.956C95.1102 105.773 95.0482 105.527 95.0482 105.344C106.076 106.631 114.812 115.272 116.113 126.181C111.9 125.691 107.873 124.159 104.466 121.646C99.3232 117.785 96.0395 112.269 95.1102 105.956ZM106.882 147.999L72.3103 182.197C63.0169 191.513 47.8377 191.635 38.4204 182.442C33.8356 177.968 31.2954 172.085 31.2335 165.711C31.1715 159.398 33.6498 153.392 38.1106 148.857L72.9299 114.414C77.3288 130.839 90.3395 143.709 106.882 147.999Z"
    fill="url(#paint0_linear_6_12)" />
  <path
    d="M178.255 88.3059C184.265 82.3611 187.549 74.4552 187.549 66.0589C187.549 57.6626 184.203 49.7567 178.193 43.8119C172.183 37.8671 164.191 34.6189 155.765 34.6189C154.588 34.6189 153.349 34.6802 152.172 34.8027C150.003 35.0479 148.454 36.9478 148.702 39.0928C148.95 41.2378 150.871 42.7087 153.039 42.5248C153.968 42.4023 154.836 42.4023 155.765 42.4023C162.147 42.4023 168.156 44.8537 172.679 49.3276C177.202 53.8016 179.742 59.7464 179.742 66.1202C179.742 72.4327 177.264 78.4388 172.741 82.9127L138.17 117.111C136.435 110.553 133.275 104.363 128.814 99.0924C127.451 97.4376 124.973 97.1925 123.3 98.6021C121.627 99.9504 121.38 102.402 122.805 104.057C127.823 110.063 130.921 117.356 131.664 125.078C131.664 125.078 131.664 125.078 131.664 125.139C131.788 126.671 131.85 127.897 131.85 129.062C131.85 133.535 131.107 137.887 129.62 142.116C129.558 142.177 129.558 142.299 129.558 142.361C127.637 147.693 124.477 152.596 120.326 156.702L83.4005 193.229C76.2755 200.277 66.7963 204.383 56.6974 204.689C54.529 204.75 52.8562 206.528 52.9181 208.673C52.9801 210.757 54.7148 212.411 56.8213 212.411C56.8833 212.411 56.8833 212.411 56.9453 212.411C69.0267 212.044 80.3646 207.202 88.9146 198.683L125.84 162.156C130.487 157.56 134.019 152.167 136.373 146.344C142.383 144.015 147.835 140.4 152.419 135.926L184.079 104.608C185.628 103.076 185.628 100.625 184.079 99.1537C182.53 97.6215 180.052 97.6215 178.565 99.1537L146.905 130.471C144.613 132.8 141.949 134.761 139.161 136.416C139.471 134.639 139.657 132.8 139.718 130.961C139.718 130.9 139.718 130.839 139.718 130.716C139.718 130.165 139.78 129.552 139.78 129C139.78 128.204 139.78 127.407 139.718 126.549C140.338 126.058 140.896 125.507 141.453 124.955L178.255 88.3059Z"
    fill="url(#paint1_linear_6_12)" />
  <path
    d="M38.9161 201.073C34.6411 199.112 30.7379 196.477 27.3923 193.106C11.9652 177.846 11.9652 153.025 27.3923 137.703L39.5357 125.691C41.0846 124.159 41.0846 121.707 39.5357 120.236C37.9868 118.704 35.5085 118.704 34.0216 120.236L21.8162 132.31C3.35334 150.573 3.41529 180.297 21.8782 198.561C25.9053 202.544 30.4901 205.731 35.6944 208.06C36.252 208.305 36.7476 208.428 37.3052 208.428C38.7922 208.428 40.2172 207.57 40.8367 206.16C41.7041 204.26 40.8987 201.931 38.9161 201.073Z"
    fill="url(#paint2_linear_6_12)" />
  <defs>
    <linearGradient id="paint0_linear_6_12" x1="192.028" y1="29.9485" x2="42.9338" y2="189.086"
      gradientUnits="userSpaceOnUse">
      <stop stop-color="#B49EDC" />
      <stop offset="1" stop-color="#6C7AF4" />
    </linearGradient>
    <linearGradient id="paint1_linear_6_12" x1="179.24" y1="45.3891" x2="33.536" y2="161.905"
      gradientUnits="userSpaceOnUse">
      <stop stop-color="#B49EDC" />
      <stop offset="1" stop-color="#6C7AF4" />
    </linearGradient>
    <linearGradient id="paint2_linear_6_12" x1="39.1353" y1="124.499" x2="-11.8915" y2="144.514"
      gradientUnits="userSpaceOnUse">
      <stop stop-color="#B49EDC" />
      <stop offset="1" stop-color="#6C7AF4" />
    </linearGradient>
  </defs>
</svg>