<svg width="500" height="141" viewBox="0 0 500 141" fill="none" xmlns="http://www.w3.org/2000/svg">
<path d="M47.04 116V103.88L45.48 100.88V78.56C45.48 74.96 44.36 72.2 42.12 70.28C39.96 68.28 36.48 67.28 31.68 67.28C28.56 67.28 25.4 67.8 22.2 68.84C19 69.8 16.28 71.16 14.04 72.92L6.36 57.44C10.04 55.04 14.44 53.2 19.56 51.92C24.76 50.56 29.92 49.88 35.04 49.88C45.6 49.88 53.76 52.32 59.52 57.2C65.36 62 68.28 69.56 68.28 79.88V116H47.04ZM27.84 117.08C22.64 117.08 18.24 116.2 14.64 114.44C11.04 112.68 8.28 110.28 6.36 107.24C4.52 104.2 3.6 100.8 3.6 97.04C3.6 93.04 4.6 89.6 6.6 86.72C8.68 83.76 11.84 81.52 16.08 80C20.32 78.4 25.8 77.6 32.52 77.6H47.88V89.48H35.64C31.96 89.48 29.36 90.08 27.84 91.28C26.4 92.48 25.68 94.08 25.68 96.08C25.68 98.08 26.44 99.68 27.96 100.88C29.48 102.08 31.56 102.68 34.2 102.68C36.68 102.68 38.92 102.08 40.92 100.88C43 99.6 44.52 97.68 45.48 95.12L48.6 103.52C47.4 108 45.04 111.4 41.52 113.72C38.08 115.96 33.52 117.08 27.84 117.08ZM106.312 117.08C100.792 117.08 95.3916 116.44 90.1116 115.16C84.9116 113.88 80.7116 112.28 77.5116 110.36L84.3516 94.76C87.3916 96.6 90.9516 98.08 95.0316 99.2C99.1116 100.24 103.112 100.76 107.032 100.76C110.872 100.76 113.512 100.36 114.952 99.56C116.472 98.76 117.232 97.68 117.232 96.32C117.232 95.04 116.512 94.12 115.072 93.56C113.712 92.92 111.872 92.44 109.552 92.12C107.312 91.8 104.832 91.44 102.112 91.04C99.3916 90.64 96.6316 90.12 93.8316 89.48C91.1116 88.76 88.5916 87.72 86.2716 86.36C84.0316 84.92 82.2316 83 80.8716 80.6C79.5116 78.2 78.8316 75.16 78.8316 71.48C78.8316 67.32 80.0316 63.64 82.4316 60.44C84.9116 57.16 88.5116 54.6 93.2316 52.76C97.9516 50.84 103.712 49.88 110.512 49.88C115.072 49.88 119.672 50.36 124.312 51.32C129.032 52.2 132.992 53.56 136.192 55.4L129.352 70.88C126.152 69.04 122.952 67.8 119.752 67.16C116.552 66.44 113.512 66.08 110.632 66.08C106.792 66.08 104.072 66.52 102.472 67.4C100.952 68.28 100.192 69.36 100.192 70.64C100.192 71.92 100.872 72.92 102.232 73.64C103.592 74.28 105.392 74.8 107.632 75.2C109.952 75.52 112.472 75.88 115.192 76.28C117.912 76.6 120.632 77.12 123.352 77.84C126.152 78.56 128.672 79.64 130.912 81.08C133.232 82.44 135.072 84.32 136.432 86.72C137.792 89.04 138.472 92.04 138.472 95.72C138.472 99.72 137.232 103.32 134.752 106.52C132.352 109.72 128.752 112.28 123.952 114.2C119.232 116.12 113.352 117.08 106.312 117.08ZM148.297 116V50.96H171.097V116H148.297ZM159.697 43.76C155.537 43.76 152.177 42.6 149.617 40.28C147.057 37.96 145.777 35.08 145.777 31.64C145.777 28.2 147.057 25.32 149.617 23C152.177 20.68 155.537 19.52 159.697 19.52C163.857 19.52 167.217 20.64 169.777 22.88C172.337 25.04 173.617 27.84 173.617 31.28C173.617 34.88 172.337 37.88 169.777 40.28C167.297 42.6 163.937 43.76 159.697 43.76ZM228.274 49.88C233.314 49.88 237.874 50.92 241.954 53C246.034 55 249.234 58.12 251.554 62.36C253.954 66.6 255.154 72.08 255.154 78.8V116H232.354V82.52C232.354 77.88 231.394 74.52 229.474 72.44C227.634 70.28 225.034 69.2 221.674 69.2C219.274 69.2 217.074 69.76 215.074 70.88C213.074 71.92 211.514 73.56 210.394 75.8C209.274 78.04 208.714 80.96 208.714 84.56V116H185.914V50.96H207.634V69.44L203.434 64.04C205.914 59.32 209.314 55.8 213.634 53.48C217.954 51.08 222.834 49.88 228.274 49.88ZM342.359 116V26.96H365.159V116H342.359ZM391.136 140.36C387.696 140.36 384.216 139.8 380.696 138.68C377.256 137.64 374.456 136.24 372.296 134.48L380.216 118.52C381.576 119.72 383.136 120.64 384.896 121.28C386.736 122 388.536 122.36 390.296 122.36C392.776 122.36 394.736 121.8 396.176 120.68C397.616 119.56 398.856 117.8 399.896 115.4L402.896 107.84L404.696 105.56L426.776 50.96H448.496L420.416 118.64C418.176 124.24 415.576 128.6 412.616 131.72C409.736 134.92 406.496 137.16 402.896 138.44C399.376 139.72 395.456 140.36 391.136 140.36ZM400.016 118.76L371.336 50.96H394.736L415.856 103.52L400.016 118.76Z" fill="white"/>
<path d="M303.529 117.08C296.329 117.08 289.889 115.64 284.209 112.76C278.609 109.88 274.209 105.92 271.009 100.88C267.809 95.76 266.209 89.92 266.209 83.36C266.209 76.8 267.809 71 271.009 65.96C274.209 60.92 278.609 57 284.209 54.2C289.889 51.32 296.329 49.88 303.529 49.88C310.889 49.88 317.249 51.44 322.609 54.56C327.969 57.68 331.769 62.08 334.009 67.76L316.369 76.76C314.849 73.72 312.969 71.52 310.729 70.16C308.489 68.72 306.049 68 303.409 68C300.769 68 298.369 68.6 296.209 69.8C294.049 71 292.329 72.76 291.049 75.08C289.849 77.32 289.249 80.08 289.249 83.36C289.249 86.72 289.849 89.56 291.049 91.88C292.329 94.2 294.049 95.96 296.209 97.16C298.369 98.36 300.769 98.96 303.409 98.96C306.049 98.96 308.489 98.28 310.729 96.92C312.969 95.48 314.849 93.24 316.369 90.2L334.009 99.2C331.769 104.88 327.969 109.28 322.609 112.4C317.249 115.52 310.889 117.08 303.529 117.08Z" fill="url(#paint0_radial_3_19)"/>
<path d="M304 110.3C299.067 110.3 294.633 109.2 290.7 107C286.833 104.733 283.767 101.633 281.5 97.7C279.3 93.7 278.2 89.1333 278.2 84C278.2 78.8667 279.3 74.3333 281.5 70.4C283.767 66.4 286.833 63.3 290.7 61.1C294.633 58.8333 299.067 57.7 304 57.7C307.933 57.7 311.567 58.4667 314.9 60C318.233 61.4667 321 63.6667 323.2 66.6L320.7 68.7C318.767 65.9667 316.333 63.9667 313.4 62.7C310.533 61.4333 307.4 60.8 304 60.8C299.733 60.8 295.9 61.7667 292.5 63.7C289.1 65.6333 286.4 68.3667 284.4 71.9C282.467 75.3667 281.5 79.4 281.5 84C281.5 88.6 282.467 92.6667 284.4 96.2C286.4 99.6667 289.1 102.4 292.5 104.4C295.9 106.333 299.733 107.3 304 107.3C307.4 107.3 310.533 106.667 313.4 105.4C316.333 104.067 318.767 102.067 320.7 99.4L323.2 101.4C321 104.4 318.233 106.633 314.9 108.1C311.567 109.567 307.933 110.3 304 110.3Z" fill="white"/>
<g clip-path="url(#clip0_3_19)">
<path d="M303 70.0714V72.2143" stroke="#503B74" stroke-linecap="round" stroke-linejoin="round"/>
<path d="M303 95.7857V97.9286" stroke="#503B74" stroke-linecap="round" stroke-linejoin="round"/>
<path d="M315.071 84H313.214" stroke="#503B74" stroke-linecap="round" stroke-linejoin="round"/>
<path d="M292.786 84H290.929" stroke="#503B74" stroke-linecap="round" stroke-linejoin="round"/>
<path d="M311.543 74.1426L310.224 75.6641" stroke="#503B74" stroke-linecap="round" stroke-linejoin="round"/>
<path d="M295.776 92.3355L294.457 93.8569" stroke="#503B74" stroke-linecap="round" stroke-linejoin="round"/>
<path d="M311.543 93.8569L310.224 92.3355" stroke="#503B74" stroke-linecap="round" stroke-linejoin="round"/>
<path d="M295.776 75.6641L294.457 74.1426" stroke="#503B74" stroke-linecap="round" stroke-linejoin="round"/>
<path d="M303 85.0714C303.513 85.0714 303.929 84.5917 303.929 84C303.929 83.4083 303.513 82.9286 303 82.9286C302.487 82.9286 302.071 83.4083 302.071 84C302.071 84.5917 302.487 85.0714 303 85.0714Z" stroke="#503B74" stroke-linecap="round" stroke-linejoin="round"/>
</g>
<defs>
<radialGradient id="paint0_radial_3_19" cx="0" cy="0" r="1" gradientUnits="userSpaceOnUse" gradientTransform="translate(250 47.5) rotate(90) scale(75.5 397.368)">
<stop stop-color="#BB4D6A"/>
<stop offset="1" stop-color="#503B74"/>
</radialGradient>
<clipPath id="clip0_3_19">
<rect width="26" height="30" fill="white" transform="translate(290 69)"/>
</clipPath>
</defs>
</svg>
