<svg width="634" height="232" viewBox="0 0 634 232" fill="none" xmlns="http://www.w3.org/2000/svg">
  <path
    d="M189.283 32.8415C170.758 14.5781 140.71 14.6394 122.247 32.9028L85.3211 69.4296C80.7364 73.9649 77.1429 79.3581 74.7886 85.3029C68.8408 87.6318 63.3267 91.2477 58.742 95.7216L45.6692 108.653C44.1203 110.185 44.1203 112.637 45.6692 114.108C47.2181 115.64 49.6964 115.64 51.1833 114.108L64.2561 101.176C66.5484 98.9085 69.1506 96.886 72.0006 95.2313C71.8766 95.9667 71.8147 96.7635 71.6908 97.4989C71.6288 97.8666 71.6288 98.2344 71.5669 98.6021C71.5669 98.7246 71.5669 98.9085 71.5049 99.0311C71.443 99.5827 71.443 100.073 71.381 100.625C71.381 100.747 71.381 100.808 71.381 100.931C71.381 101.483 71.319 102.034 71.319 102.647C71.319 103.076 71.319 103.444 71.319 103.873C71.319 103.934 71.319 103.995 71.319 104.057C71.319 104.424 71.319 104.731 71.381 105.098V105.16C70.8234 105.65 70.2658 106.202 69.7082 106.692L32.4726 143.525C26.5248 149.531 23.2412 157.437 23.3651 165.833C23.489 174.23 26.7727 182.136 32.8443 188.019C39.04 194.025 47.0942 197.028 55.1485 197.028C63.3887 197.028 71.5669 193.903 77.7625 187.652L114.688 151.125C115.742 150.083 116.733 148.98 117.6 147.754C117.724 147.631 117.848 147.447 117.91 147.325C121.565 142.361 123.61 136.477 123.92 130.349V130.287C123.92 129.858 123.92 129.429 123.92 129C123.982 112.698 111.405 99.2149 95.296 97.6215C95.7297 95.6603 96.4112 93.7604 97.2786 91.9831C97.2786 91.9831 97.2786 91.9218 97.3406 91.9218C97.4645 91.6767 97.6503 91.3702 97.7743 91.1251C97.8362 91.0638 97.8362 91.0025 97.8982 90.9412C98.0221 90.6961 98.208 90.451 98.3319 90.2058C102.793 90.88 107.068 92.2895 111.033 94.4346C112.953 95.4764 115.308 94.741 116.299 92.9024C117.352 91.0025 116.609 88.6736 114.75 87.693C111.343 85.8545 107.811 84.5061 104.156 83.5256L138.727 49.3276C138.851 49.2051 139.037 49.0825 139.161 48.9599C140.772 47.5503 140.896 45.0989 139.471 43.5054C138.046 41.912 135.567 41.7894 133.957 43.199C133.709 43.4441 133.461 43.628 133.213 43.8731L96.2873 80.3999C95.2341 81.4418 94.2428 82.6063 93.3134 83.7707C93.2515 83.832 93.2515 83.8933 93.1895 83.8933C92.9417 84.1997 92.6939 84.5674 92.508 84.8739C92.3841 84.9964 92.3221 85.1803 92.1982 85.3029C92.0123 85.548 91.8884 85.7932 91.7026 86.0383C91.5787 86.2222 91.5167 86.3447 91.3928 86.5286C91.2689 86.7738 91.145 87.0189 90.9591 87.2028C90.7113 87.6318 90.4635 88.0608 90.2776 88.4898C90.2156 88.5511 90.2156 88.6736 90.1537 88.7349C89.9678 89.0414 89.8439 89.3478 89.72 89.7155C89.72 89.7768 89.658 89.8381 89.658 89.8381C87.2417 95.17 86.3744 101.115 87.2417 106.998C88.4189 115.333 92.8178 122.688 99.6329 127.713C104.28 131.145 109.794 133.29 115.556 133.842C114.998 136.477 113.945 138.99 112.582 141.258C94.9243 138.5 81.1081 124.159 79.3114 106.385C79.1875 105.037 79.1255 103.75 79.1255 102.524C79.1255 101.421 79.1875 100.379 79.2494 99.2762C79.2494 99.2149 79.2494 99.1537 79.2494 99.0924C79.3114 98.6021 79.3733 98.1118 79.4353 97.6215C79.4353 97.4989 79.4972 97.3763 79.4972 97.2538C79.5592 96.9473 79.5592 96.6409 79.6211 96.3345C79.6831 95.9055 79.7451 95.4764 79.869 95.0474C79.869 94.9862 79.869 94.9249 79.9309 94.8636C81.4798 87.3253 85.1972 80.3387 90.7732 74.8842L127.699 38.3573C143.126 23.097 168.218 23.0357 183.707 38.296C196.904 51.2888 199.072 71.9424 188.974 87.3866C187.796 89.1639 188.292 91.5541 190.089 92.7186C191.885 93.883 194.302 93.3927 195.479 91.6154C207.684 73.1068 205.02 48.4083 189.283 32.8415ZM95.1102 105.956C95.1102 105.773 95.0482 105.527 95.0482 105.344C106.076 106.631 114.812 115.272 116.113 126.181C111.9 125.691 107.873 124.159 104.466 121.646C99.3232 117.785 96.0395 112.269 95.1102 105.956ZM106.882 147.999L72.3103 182.197C63.0169 191.513 47.8377 191.635 38.4204 182.442C33.8356 177.968 31.2954 172.085 31.2335 165.711C31.1715 159.398 33.6498 153.392 38.1106 148.857L72.9299 114.414C77.3288 130.839 90.3395 143.709 106.882 147.999Z"
    fill="url(#paint0_linear_5_10)" />
  <path
    d="M178.255 88.3059C184.265 82.3611 187.549 74.4552 187.549 66.0589C187.549 57.6626 184.203 49.7567 178.193 43.8119C172.183 37.8671 164.191 34.6189 155.765 34.6189C154.588 34.6189 153.349 34.6802 152.172 34.8027C150.003 35.0479 148.454 36.9478 148.702 39.0928C148.95 41.2378 150.871 42.7087 153.039 42.5248C153.968 42.4023 154.836 42.4023 155.765 42.4023C162.147 42.4023 168.156 44.8537 172.679 49.3276C177.202 53.8016 179.742 59.7464 179.742 66.1202C179.742 72.4327 177.264 78.4388 172.741 82.9127L138.17 117.111C136.435 110.553 133.275 104.363 128.814 99.0924C127.451 97.4376 124.973 97.1925 123.3 98.6021C121.627 99.9504 121.38 102.402 122.805 104.057C127.823 110.063 130.921 117.356 131.664 125.078C131.664 125.078 131.664 125.078 131.664 125.139C131.788 126.671 131.85 127.897 131.85 129.062C131.85 133.535 131.107 137.887 129.62 142.116C129.558 142.177 129.558 142.299 129.558 142.361C127.637 147.693 124.477 152.596 120.326 156.702L83.4005 193.229C76.2755 200.277 66.7963 204.383 56.6974 204.689C54.529 204.75 52.8562 206.528 52.9181 208.673C52.9801 210.757 54.7148 212.411 56.8213 212.411C56.8833 212.411 56.8833 212.411 56.9453 212.411C69.0267 212.044 80.3646 207.202 88.9146 198.683L125.84 162.156C130.487 157.56 134.019 152.167 136.373 146.344C142.383 144.015 147.835 140.4 152.419 135.926L184.079 104.608C185.628 103.076 185.628 100.625 184.079 99.1537C182.53 97.6215 180.052 97.6215 178.565 99.1537L146.905 130.471C144.613 132.8 141.949 134.761 139.161 136.416C139.471 134.639 139.657 132.8 139.718 130.961C139.718 130.9 139.718 130.839 139.718 130.716C139.718 130.165 139.78 129.552 139.78 129C139.78 128.204 139.78 127.407 139.718 126.549C140.338 126.058 140.896 125.507 141.453 124.955L178.255 88.3059Z"
    fill="url(#paint1_linear_5_10)" />
  <path
    d="M38.9161 201.073C34.6411 199.112 30.7379 196.477 27.3923 193.106C11.9652 177.846 11.9652 153.025 27.3923 137.703L39.5357 125.691C41.0846 124.159 41.0846 121.707 39.5357 120.236C37.9868 118.704 35.5085 118.704 34.0216 120.236L21.8162 132.31C3.35334 150.573 3.41529 180.297 21.8782 198.561C25.9053 202.544 30.4901 205.731 35.6944 208.06C36.252 208.305 36.7476 208.428 37.3052 208.428C38.7922 208.428 40.2172 207.57 40.8367 206.16C41.7041 204.26 40.8987 201.931 38.9161 201.073Z"
    fill="url(#paint2_linear_5_10)" />
  <path
    d="M217.052 171.297L217.13 159.178L215.589 156.168L215.731 133.848C215.754 130.248 214.652 127.481 212.424 125.547C210.277 123.533 206.803 122.511 202.003 122.481C198.883 122.461 195.72 122.96 192.514 123.98C189.307 124.92 186.579 126.262 184.328 128.008L176.746 112.479C180.442 110.103 184.853 108.291 189.981 107.044C195.19 105.717 200.354 105.07 205.474 105.102C216.034 105.17 224.178 107.662 229.907 112.578C235.716 117.415 238.588 124.994 238.522 135.314L238.292 171.433L217.052 171.297ZM197.846 172.255C192.646 172.222 188.252 171.314 184.663 169.531C181.074 167.748 178.33 165.331 176.429 162.278C174.609 159.227 173.71 155.821 173.734 152.061C173.76 148.061 174.782 144.627 176.8 141.76C178.899 138.814 182.073 136.594 186.323 135.101C190.573 133.528 196.058 132.763 202.777 132.806L218.137 132.904L218.061 144.783L205.822 144.705C202.142 144.682 199.538 145.265 198.01 146.456C196.563 147.646 195.833 149.242 195.82 151.242C195.807 153.242 196.557 154.846 198.069 156.056C199.582 157.266 201.658 157.879 204.298 157.896C206.778 157.912 209.021 157.326 211.029 156.139C213.117 154.872 214.649 152.962 215.626 150.408L218.692 158.828C217.463 163.3 215.082 166.685 211.547 168.982C208.093 171.2 203.526 172.291 197.846 172.255ZM276.316 172.755C270.796 172.72 265.4 172.046 260.128 170.732C254.937 169.419 250.747 167.792 247.559 165.852L254.499 150.296C257.527 152.155 261.077 153.658 265.15 154.804C269.223 155.87 273.22 156.415 277.14 156.44C280.98 156.465 283.622 156.081 285.067 155.291C286.592 154.5 287.359 153.425 287.368 152.065C287.376 150.785 286.662 149.861 285.226 149.291C283.87 148.643 282.033 148.151 279.715 147.816C277.477 147.482 274.999 147.106 272.282 146.689C269.565 146.272 266.808 145.734 264.012 145.076C261.297 144.339 258.783 143.283 256.472 141.908C254.241 140.454 252.454 138.522 251.109 136.114C249.764 133.705 249.104 130.661 249.127 126.981C249.154 122.821 250.377 119.149 252.797 115.964C255.298 112.7 258.914 110.163 263.646 108.353C268.378 106.463 274.144 105.54 280.944 105.583C285.504 105.612 290.101 106.122 294.735 107.111C299.449 108.021 303.4 109.406 306.588 111.267L299.65 126.703C296.462 124.843 293.27 123.582 290.074 122.922C286.878 122.181 283.841 121.802 280.961 121.784C277.121 121.759 274.398 122.182 272.793 123.052C271.267 123.922 270.5 124.997 270.492 126.277C270.484 127.557 271.157 128.561 272.513 129.29C273.869 129.939 275.665 130.47 277.903 130.884C280.221 131.219 282.738 131.595 285.456 132.013C288.174 132.35 290.89 132.887 293.606 133.625C296.401 134.362 298.914 135.458 301.145 136.913C303.456 138.287 305.284 140.179 306.629 142.588C307.974 144.916 308.635 147.921 308.611 151.601C308.586 155.6 307.323 159.192 304.823 162.377C302.402 165.561 298.786 168.098 293.974 169.988C289.242 171.878 283.356 172.8 276.316 172.755ZM318.307 171.943L318.721 106.904L341.521 107.049L341.106 172.088L318.307 171.943ZM330.167 99.7769C326.007 99.7503 322.655 98.569 320.11 96.2327C317.564 93.8964 316.303 91.0083 316.325 87.5684C316.347 84.1285 317.645 81.2567 320.22 78.953C322.794 76.6494 326.162 75.5108 330.322 75.5374C334.482 75.5639 337.834 76.7053 340.38 78.9615C342.926 81.1378 344.188 83.9459 344.166 87.3858C344.143 90.9858 342.844 93.9775 340.269 96.3612C337.774 98.6653 334.407 99.8039 330.167 99.7769ZM398.704 106.334C403.744 106.366 408.297 107.435 412.364 109.541C416.431 111.567 419.611 114.707 421.904 118.962C424.277 123.217 425.442 128.705 425.399 135.425L425.162 172.624L402.362 172.478L402.576 138.999C402.605 134.359 401.667 130.993 399.76 128.901C397.934 126.729 395.341 125.633 391.981 125.611C389.581 125.596 387.377 126.142 385.37 127.249C383.364 128.276 381.793 129.906 380.659 132.139C379.525 134.372 378.946 137.288 378.923 140.888L378.723 172.328L355.923 172.182L356.338 107.144L378.057 107.282L377.94 125.762L373.774 120.335C376.284 115.631 379.707 112.133 384.041 109.84C388.376 107.468 393.264 106.299 398.704 106.334ZM473.529 174.012C466.329 173.966 459.899 172.485 454.237 169.569C448.656 166.653 444.281 162.665 441.113 157.605C437.946 152.465 436.383 146.615 436.425 140.055C436.467 133.495 438.104 127.705 441.336 122.686C444.568 117.666 448.993 113.774 454.61 111.01C460.308 108.166 466.758 106.768 473.957 106.813C481.317 106.86 487.667 108.461 493.007 111.615C498.347 114.769 502.119 119.193 504.323 124.887L486.626 133.775C485.125 130.725 483.259 128.513 481.028 127.139C478.797 125.685 476.362 124.949 473.722 124.932C471.082 124.915 468.678 125.5 466.511 126.686C464.343 127.873 462.612 129.622 461.317 131.933C460.103 134.166 459.485 136.922 459.464 140.202C459.443 143.562 460.025 146.405 461.21 148.733C462.475 151.061 464.184 152.832 466.336 154.046C468.489 155.26 470.885 155.875 473.525 155.892C476.165 155.908 478.609 155.244 480.857 153.898C483.107 152.473 485.001 150.245 486.54 147.214L504.122 156.327C501.846 161.992 498.018 166.368 492.639 169.454C487.259 172.539 480.889 174.059 473.529 174.012ZM512.366 173.18L512.933 84.1413L535.733 84.2866L535.165 173.325L512.366 173.18ZM560.986 197.85C557.547 197.828 554.07 197.246 550.557 196.103C547.124 195.041 544.333 193.624 542.184 191.85L550.206 175.941C551.558 177.149 553.112 178.079 554.868 178.731C556.704 179.462 558.501 179.834 560.261 179.845C562.741 179.861 564.705 179.313 566.152 178.202C567.599 177.092 568.85 175.34 569.905 172.946L572.953 165.405L574.768 163.137L597.195 108.679L618.915 108.817L590.404 176.317C588.129 181.903 585.501 186.246 582.521 189.347C579.621 192.529 576.367 194.748 572.758 196.005C569.23 197.262 565.306 197.877 560.986 197.85ZM570.004 176.307L541.757 108.326L565.156 108.475L585.941 161.168L570.004 176.307Z"
    fill="white" />
  <defs>
    <linearGradient id="paint0_linear_5_10" x1="192.028" y1="29.9485" x2="42.9338" y2="189.086"
      gradientUnits="userSpaceOnUse">
      <stop stop-color="#B49EDC" />
      <stop offset="1" stop-color="#6C7AF4" />
    </linearGradient>
    <linearGradient id="paint1_linear_5_10" x1="179.24" y1="45.3891" x2="33.536" y2="161.905"
      gradientUnits="userSpaceOnUse">
      <stop stop-color="#B49EDC" />
      <stop offset="1" stop-color="#6C7AF4" />
    </linearGradient>
    <linearGradient id="paint2_linear_5_10" x1="39.1353" y1="124.499" x2="-11.8915" y2="144.514"
      gradientUnits="userSpaceOnUse">
      <stop stop-color="#B49EDC" />
      <stop offset="1" stop-color="#6C7AF4" />
    </linearGradient>
  </defs>
</svg>