<svg width="167" height="167" viewBox="0 0 167 167" fill="none" xmlns="http://www.w3.org/2000/svg">
	<g clip-path="url(#clip0_30_2)">
		<path
			d="M167 25.7V25.6C167 22.2 166.2 18.9 165 15.9C163 11.2 159.7 7.3 155.6 4.5C151.4 1.6 146.4 0 141 0H26.2C22.6 0 19.1 0.7 16 2.1C11.3 4.1 7.3 7.4 4.5 11.6C1.7 15.7 0 20.8 0 26.2V140.8C0 144.4 0.7 147.9 2.1 151C4.1 155.7 7.4 159.7 11.6 162.5C15.8 165.3 20.9 167 26.3 167H140.9C144.5 167 148 166.3 151.1 164.9C155.8 162.9 159.8 159.6 162.6 155.4C165.4 151.2 167.1 146.1 167.1 140.7L167 25.7ZM152 145.5C151.1 147.7 149.5 149.6 147.6 150.9C145.6 152.2 143.3 153 140.8 153H26.2C24.5 153 22.9 152.7 21.4 152C19.2 151.1 17.3 149.5 16 147.6C14.7 145.6 13.9 143.3 13.9 140.8V26.2C13.9 24.5 14.2 22.9 14.9 21.5C15.8 19.3 17.4 17.4 19.3 16.1C21.3 14.8 23.6 14 26.1 14H141C142.7 14 144.2 14.3 145.7 14.9C147.8 15.8 149.7 17.3 151 19.3C152.3 21.2 153 23.5 153 26V140.8C153 142.5 152.7 144.1 152 145.5Z"
			fill="#7B80DE" />
		<circle cx="86.5" cy="83.5" r="48.5" stroke="#8598A5" stroke-width="10" />
		<path d="M118 83H86.25C86.1119 83 86 82.8881 86 82.75V63" stroke="#8598A5" stroke-width="10"
			stroke-linecap="round" />
	</g>
	<defs>
		<clipPath id="clip0_30_2">
			<rect width="167" height="167" fill="white" />
		</clipPath>
	</defs>
</svg>
